<?xml version="1.0" encoding="utf-8"?>
<!-- Generator: Adobe Illustrator 16.0.0, SVG Export Plug-In . SVG Version: 6.00 Build 0)  -->
<!DOCTYPE svg PUBLIC "-//W3C//DTD SVG 1.1//EN" "http://www.w3.org/Graphics/SVG/1.1/DTD/svg11.dtd">
<svg version="1.1" id="Layer_1" xmlns="http://www.w3.org/2000/svg" xmlns:xlink="http://www.w3.org/1999/xlink" x="0px" y="0px"
	 width="70px" height="45px" viewBox="0 0 283 173" enable-background="new 0 0 283 173" xml:space="preserve">
<g id="cprR3g_1_">
	<g>
		<path fill="#faf7e3" d="M217.143,32.3c-1.09-0.021-2.055-0.101-3.012-0.044c-1.91,0.113-3.816,0.298-5.725,0.465
			c-0.182,0.016-0.426,0.058-0.522,0.181c-0.485,0.616-0.907,0.455-1.399-0.001c-0.186-0.173-0.504-0.29-0.76-0.288
			c-2.814,0.028-5.634,0.204-8.44,0.094c-1.942-0.076-3.896,0.507-5.862-0.299c-0.879-0.36-2.035-0.087-3.062-0.031
			c-2.332,0.127-4.666,0.264-6.992,0.46c-2.242,0.189-4.473,0.523-6.717,0.662c-0.953,0.059-1.955-0.427-2.89-0.308
			c-3.851,0.489-7.444-0.973-11.179-1.315c-0.236-0.022-0.48-0.053-0.713-0.02c-2.047,0.29-4.189-0.149-6.135,0.31
			c-1.611,0.381-3.412-0.018-4.877,1.034c-0.137,0.098-0.521,0.059-0.64-0.063c-0.642-0.673-1.364-0.365-2.118-0.327
			c-1.777,0.091-3.563,0-5.343,0.077c-1.975,0.085-3.944,0.356-5.918,0.392c-1.331,0.024-2.675-0.384-3.997-0.308
			c-2.287,0.133-4.558,0.527-6.842,0.746c-1.601,0.153-3.215,0.159-4.817,0.302c-0.926,0.083-1.837,0.33-2.761,0.459
			c-0.474,0.066-0.961,0.049-1.442,0.048c-0.902-0.001-1.805-0.027-2.707-0.027c-1.375,0-2.763,0.14-4.119-0.014
			c-1.663-0.188-3.32-0.375-4.978-0.499c-1.495-0.112-3-0.015-4.489-0.087c-1.439-0.069-3.021-0.132-4.298,0.392
			c-0.944,0.387-1.453,0.366-2.143-0.165c-0.081-0.062-0.23-0.048-0.348-0.048c-2.458-0.003-4.915-0.028-7.372,0.006
			c-1.612,0.022-3.226,0.213-4.834,0.175c-1.33-0.031-2.657-0.428-3.981-0.411c-2.123,0.027-4.241,0.298-6.364,0.398
			c-1.846,0.086-3.696,0.069-5.544,0.119c-0.308,0.008-0.624,0.091-0.917,0.193c-1.688,0.583-3.419-0.14-5.068,0.111
			c-3.667,0.556-7.036-1.145-10.6-1.135c-1.707,0.005-3.419,0.14-5.117,0.326c-2.413,0.263-4.821,0.585-7.214,0.981
			c-0.508,0.084-0.951,0.587-1.414,0.911c-0.226,0.158-0.402,0.431-0.646,0.51c-2.39,0.768-3.647,2.616-4.451,4.801
			c-0.558,1.517-1.203,2.959-0.597,4.797c0.401,1.215,0.708,2.563,0.955,3.819c0.481,2.444,0.385,5.034,0.27,7.552
			c-0.112,2.447-0.626,4.873-0.811,7.32c-0.112,1.498,0.1,3.017,0.101,4.527c0,1.225-0.138,2.45-0.14,3.675
			c-0.002,1.367,0.345,2.792,0.061,4.086c-0.368,1.678,0.196,3.175,0.359,4.744c0.16,1.541,0.545,3.058,0.746,4.596
			c0.426,3.254,0.907,6.508,1.137,9.78c0.093,1.318,0.549,2.446,0.838,3.654c0.7,2.932,0.821,6.001,1.189,9.013
			c0.173,1.416,0.432,2.823,0.546,4.243c0.07,0.859-0.165,1.745-0.078,2.6c0.131,1.297,0.422,2.576,0.65,3.861
			c0.021,0.115,0.108,0.223,0.121,0.338c0.328,3.225,2.155,6.003,2.703,9.158c0.067,0.385,0.037,0.785,0.068,1.178
			c0.031,0.395-0.066,0.936,0.151,1.156c1.397,1.419,0.777,3.389,1.456,5.015c0.698,1.675,1.031,3.497,1.609,5.228
			c0.171,0.512,0.62,0.936,0.96,1.386c0.189,0.251,0.519,0.438,0.611,0.714c0.825,2.444,2.82,3.609,5.038,4.305
			c1.479,0.463,3.02,1.422,4.731,0.199c0.507-0.361,1.557,0.085,2.356,0.074c0.963-0.014,1.925-0.12,2.888-0.188
			c0.039-0.002,0.093-0.039,0.114-0.023c1.635,1.162,3.126-0.348,4.723-0.262c1.658,0.088,3.347-0.264,4.994-0.112
			c2.456,0.226,4.944,0.511,7.311,1.163c2.253,0.621,4.492,0.564,6.755,0.658c1.067,0.045,2.128,0.22,3.195,0.287
			c1.479,0.094,2.964,0.105,4.442,0.22c1.801,0.138,3.595,0.377,5.397,0.506c1.144,0.082,2.296,0.04,3.445,0.055
			c0.776,0.011,1.551,0.024,2.328,0.035c0.156,0.002,0.349,0.056,0.463-0.017c2.397-1.478,5.218-1.027,7.787-1.721
			c0.132-0.035,0.341,0.014,0.445,0.104c0.979,0.838,1.739,0.096,2.56-0.316c0.324-0.162,0.689-0.31,1.044-0.33
			c2.067-0.123,4.14-0.176,6.206-0.316c1.414-0.098,2.838-0.211,4.227-0.479c1.551-0.3,3.211-0.524,4.544-1.276
			c0.872-0.49,1.868-1.125,2.456-2.297c0.612-1.222,0.986-2.399,1.041-3.698c0.095-2.271,0.037-4.548,0.18-6.814
			c0.08-1.272,0.482-2.524,0.653-3.797c0.18-1.347,0.211-2.714,0.392-4.062c0.21-1.559,0.615-3.096,0.748-4.658
			c0.151-1.791,0.057-3.604,0.141-5.401c0.149-3.194,0.2-6.405,0.57-9.577c0.505-4.33,0.809-8.646,0.681-13.013
			c-0.055-1.901,0.467-3.813,0.641-5.729c0.065-0.727-0.115-1.475-0.183-2.212c-0.174-0.071,0.652-0.143,0.478-0.214
			c0.326-0.217-0.29-0.382-0.037-0.665c0.245-0.275,0.467-0.658,0.502-1.014c0.07-0.714,0.004-1.442-0.002-2.164
			c-0.012-1.528,0.007-3.057-0.037-4.584c-0.083-2.855-1.18-3.883-3.357-4.479c-0.948-0.259-2.158-0.029-3.12,0.328
			c-2.247,0.832-4.424,1.857-6.614,2.839c-1.18,0.529-2.329,1.128-3.736,1.815c0.307,1.129,0.75,2.268,0.91,3.445
			c0.369,2.72,0.689,5.454,0.862,8.192c0.163,2.586,0.152,5.186,0.145,7.779c-0.006,2.418,0.223,4.938-0.898,7.146
			c-0.903,1.777-1.019,3.856-2.444,5.439c-3.01,3.344-5.791,6.934-10.404,8.221c-2.138,0.597-4.302,1.021-6.541,0.676
			c-0.924-0.141-1.927-0.107-2.755-0.473c-1.596-0.701-3.167-1.519-4.606-2.498c-1.272-0.863-2.362-2-3.507-3.045
			c-0.554-0.507-1.05-1.076-1.649-1.699c-0.521,0.875-0.993,1.765-1.568,2.58c-0.173,0.246-0.682,0.228-0.949,0.439
			c-0.735,0.588-1.364,1.324-2.142,1.842c-3.191,2.123-6.331,4.354-9.681,6.193c-1.436,0.789-3.344,0.712-5.033,1.048
			c-4.102,0.813-7.841-0.388-11.33-2.321c-1.362-0.755-2.414-2.126-3.492-3.318c-1.379-1.528-2.734-3.098-3.914-4.777
			c-0.515-0.732-0.587-1.785-0.829-2.701c-0.394-1.488-0.804-2.974-1.13-4.479c-0.467-2.151-0.872-4.319-1.289-6.482
			c-0.198-1.027-0.388-2.058-0.532-3.094c-0.051-0.367,0.062-0.755,0.074-1.135c0.036-1.26,0.088-2.521,0.082-3.779
			c-0.012-2.562-0.092-5.125-0.078-7.687c0.008-1.379,0.119-2.761,0.25-4.136c0.101-1.059,0.328-2.106,0.46-3.163
			c0.107-0.858,0.153-1.724,0.233-2.585c0.187-2,0.378-3.999,0.565-5.999c0.007-0.076,0.008-0.176-0.033-0.23
			c-0.823-1.08-0.179-1.998,0.33-2.918c0.843-1.525,1.708-3.038,2.555-4.561c0.283-0.509,0.513-1.049,0.816-1.544
			c1.207-1.965,2.78-3.612,4.566-5.05c0.381-0.307,0.931-0.396,1.373-0.639c0.312-0.171,0.576-0.433,0.728-0.821
			c0.452-0.038,0.907-0.054,1.355-0.117c1.277-0.18,2.546-0.461,3.829-0.549c1.695-0.117,2.933,1.018,4.289,1.796
			c0.671,0.385,1.347,0.763,1.996,1.184c0.349,0.226,0.687,0.497,0.954,0.812c0.343,0.405,0.611,0.874,0.908,1.317
			c0.776,1.158,1.717,2.242,2.28,3.496c0.617,1.372,0.928,2.889,1.289,4.364c0.297,1.218,0.319,2.52,0.732,3.689
			c0.963,2.723,0.322,5.488,0.392,8.228c0.036,1.413-2.105,3.192-3.516,3.077c-0.265-0.021-0.621-0.357-0.73-0.63
			c-0.543-1.358-1.027-2.741-1.515-4.122c-0.29-0.82-0.229-1.797-0.457-2.501c-0.407-1.263-0.093-2.548-0.544-3.746
			c-0.378-1.005-0.675-2.042-1.094-3.029c-0.434-1.021-2.822-2.124-4.02-2.033c-2.811,0.212-4.399,1.771-5.298,4.365
			c-0.487,1.404-1.685,2.613-1.958,4.027c-0.507,2.626-2.275,4.937-1.645,7.88c0.451,2.106,0.069,4.391,0.529,6.493
			c0.554,2.541,0.523,5.328,2.411,7.477c0.2,0.229,0.063,0.752,0.212,1.067c0.376,1.13,0.9,2.235,1.096,3.396
			c0.297,1.765,0.861,3.407,1.671,4.979c0.672,1.306,1.237,2.707,2.138,3.836c0.566,0.709,1.617,1.229,2.536,1.418
			c1.747,0.356,3.558,0.574,5.336,0.539c1.08-0.021,2.254-0.442,3.199-1.001c1.941-1.146,3.802-2.443,5.596-3.812
			c0.566-0.432,0.816-1.278,1.207-1.938c0.077-0.13,0.1-0.316,0.208-0.398c1.687-1.276,1.699-3.28,2.086-5.065
			c0.274-1.267,0.125-2.62,0.208-3.933c0.024-0.379,0.327-0.762,0.286-1.117c-0.114-0.989-0.406-1.959-0.509-2.947
			c-0.159-1.536-0.438-3.106-0.271-4.618c0.262-2.377,1.017-4.701,1.26-7.079c0.305-2.98,1.485-5.659,2.879-8.152
			c1.092-1.955,2.976-3.468,4.513-5.173c0.158-0.175,0.398-0.288,0.524-0.479c0.756-1.151,1.804-1.817,3.144-2.142
			c2.297-0.558,4.627-0.913,6.955-1.293c0.078-0.013,0.165-0.016,0.239,0.005c1.96,0.577,3.975,1.02,5.854,1.793
			c0.968,0.398,1.749,1.332,2.514,2.121c0.939,0.97,1.847,1.989,2.619,3.091c0.36,0.514,0.55,0.667,1.098,0.362
			c2.398-1.331,4.807-2.641,7.216-3.95c1.071-0.582,2.168-1.119,3.222-1.73c0.355-0.207,0.597-0.601,0.922-0.871
			c0.161-0.133,0.509-0.307,0.575-0.247c0.808,0.738,1.353-0.188,2.007-0.311c1.027-0.192,2.069-0.422,3.033-0.813
			c2.44-0.988,4.763-0.042,7.076,0.43c0.844,0.172,1.571,1.072,2.271,1.726c0.327,0.305,0.464,0.813,0.736,1.322
			c0.227-0.169,0.435-0.246,0.509-0.391c1.323-2.604,3.96-2.992,6.352-3.833c2.265-0.795,4.543-0.324,6.808-0.178
			c1.972,0.126,3.976,0.3,5.882,0.781c1.932,0.487,3.788,1.309,5.623,2.11c2.104,0.917,4.201,1.875,6.191,3.009
			c0.951,0.542,1.778,1.435,2.432,2.336c1.434,1.977,1.604,4.504,2.686,6.655c0.404,0.805,0.756,1.667,0.942,2.542
			c0.185,0.863-0.003,1.811,0.215,2.659c0.22,0.85,0.359,1.598,0.181,2.508c-0.473,2.399-0.898,4.825-1.084,7.26
			c-0.215,2.801-1.42,5.309-2.023,7.985c-0.167,0.739,0.554,1.631,1.689,2.017c3.23,1.098,6.135,0.129,8.312-2.646
			c1.474-1.875,3.147-3.595,4.571-5.503c0.773-1.036,1.244-2.307,1.795-3.497c0.648-1.402,1.271-2.819,1.838-4.256
			c0.354-0.898,0.521-1.871,0.888-2.764c0.665-1.627,1.433-3.212,2.116-4.832c0.197-0.468,0.253-0.995,0.391-1.563
			c0.799,0.233,1.051-0.317,1.182-1.232c0.078-0.546,0.578-1.019,0.812-1.558c0.835-1.935,2.3-3.426,3.449-5.121
			c0.856-1.264,2.097-1.919,3.097-2.776c1.789-1.534,3.971-2.615,6.545-2.89c2.555-0.273,4.692,0.42,6.75,1.672
			c0.631,0.385,1.072,1.084,1.699,1.743c0.708-1.241,1.497-2.434,2.094-3.717c0.698-1.503,1.748-2.429,3.363-2.206
			c1.625,0.225,3.232,0.702,4.791,1.238c0.991,0.342,1.039,1.506,0.496,2.386c-0.568,0.923-0.934,1.982-1.318,3.007
			c-0.324,0.855-0.68,1.731-0.793,2.626c-0.246,1.928-0.361,3.874-0.482,5.816c-0.012,0.19,0.311,0.401,0.441,0.559
			c-0.636,0.954-1.056,1.854-1.002,3.026c0.055,1.192-0.207,2.397-0.309,3.599c-0.075,0.9-0.049,1.812-0.182,2.703
			c-0.209,1.393-0.508,2.772-0.775,4.155c-0.562,2.903-0.88,5.826-0.469,8.773c0.447,3.187,2.072,4.683,5.233,4.865
			c1.691,0.099,2.927-0.985,4.181-1.871c1.922-1.354,3.93-0.826,4.518,1.438c0.865,3.329,0.669,6.654-1.925,9.12
			c-1.382,1.313-3.398,2.038-5.229,2.774c-1.229,0.496-2.632,0.713-3.967,0.762c-2.852,0.101-5.057-1.176-6.641-3.559
			c-2.174-3.271-5.107-3.211-7.2,0.062c-0.414,0.646-1.067,1.203-1.728,1.62c-1.47,0.931-2.922,2.067-4.55,2.526
			c-1.856,0.525-3.895,0.524-5.854,0.535c-2.438,0.016-3.918-1.643-5.51-3.275c-1.261-1.295-1.854-2.713-2.345-4.35
			c-0.241-0.808-0.979-1.467-1.554-2.279c-0.967,0.718-1.745,1.306-2.534,1.879c-2.669,1.94-5.553,3.328-8.929,3.429
			c-0.835,0.024-1.67,0.049-2.506,0.065c-0.197,0.004-0.449,0.057-0.586-0.041c-2.074-1.48-4.698-0.734-6.844-1.638
			c-2.383-1.002-3.875-0.186-5.341,1.55c-1.481,1.754-3.229,3.301-4.562,5.153c-1.024,1.425-2.359,2.202-3.844,2.838
			c-0.737,0.315-1.593,0.386-2.403,0.499c-2.226,0.312-4.386-0.066-6.5-0.729c-1.739-0.543-3.458-1.148-5.019-1.672
			c-0.119,0.621-0.293,1.361-0.4,2.111c-0.256,1.811-0.442,3.631-0.738,5.434c-0.104,0.631-0.52,1.203-0.66,1.832
			c-0.178,0.797-0.275,1.621-0.309,2.438c-0.079,1.939-0.079,3.861-0.932,5.703c-0.264,0.572,0.054,1.414,0.111,2.221
			c-1.162,0.454-0.554,1.777-0.761,2.729c-0.392,1.799-0.507,3.658-0.707,5.496c-0.03,0.279,0.134,0.572,0.149,0.863
			c0.014,0.279,0.011,0.586-0.09,0.84c-0.249,0.629-0.698,1.205-0.822,1.849c-1.021,5.304-3.133,9.756-8.637,11.793
			c-1.819,0.674-3.524,1.659-5.348,2.313c-1.322,0.475-2.754,0.642-4.14,0.934c-0.136,0.027-0.378,0.016-0.422-0.062
			c-0.429-0.762-0.953-0.423-1.612-0.33c-1.932,0.273-3.896,0.312-5.842,0.492c-0.583,0.055-1.148,0.286-1.728,0.406
			c-0.219,0.045-0.572,0.102-0.666-0.012c-0.674-0.812-1.508-0.426-2.321-0.428c-1.739-0.004-3.478-0.164-5.216-0.156
			c-1.97,0.008-3.94,0.203-5.908,0.173c-1.292-0.019-2.583-0.443-3.87-0.418c-2.289,0.046-4.572,0.333-6.862,0.448
			c-1.677,0.084-3.36,0.049-5.041,0.086c-0.307,0.007-0.628,0.065-0.916,0.173c-1.684,0.625-3.407-0.058-5.076,0.142
			c-3.853,0.457-7.429-1.035-11.162-1.355c-0.868-0.073-1.758,0.082-2.623-0.01c-1.36-0.146-2.722,0.168-4.096-0.621
			c-0.864-0.496-2.208-0.31-3.314-0.201c-2.792,0.271-5.567,0.723-8.36,0.984c-0.655,0.062-1.351-0.496-2.032-0.508
			c-2.999-0.049-5.481-1.535-8.069-2.745c-0.179-0.084-0.341-0.243-0.526-0.271c-3.386-0.53-4.943-2.881-5.897-5.86
			c-0.228-0.711-0.571-1.384-0.841-2.082c-0.873-2.263-1.775-4.515-2.581-6.801c-0.242-0.687-0.241-1.468-0.292-2.209
			c-0.239-3.422-0.396-6.851-0.708-10.265c-0.168-1.838-0.623-3.646-0.881-5.478c-0.12-0.848-0.072-1.718-0.111-2.578
			c-0.056-1.226-0.006-2.471-0.21-3.673c-0.307-1.812-0.839-3.586-1.19-5.395c-0.354-1.821-0.596-3.666-0.903-5.498
			c-0.052-0.307-0.201-0.596-0.284-0.898c-0.947-3.486-1.265-7.036-1.386-10.646c-0.107-3.213-0.615-6.418-1.027-9.616
			c-0.358-2.778-0.87-5.537-1.237-8.315c-0.287-2.176-0.483-4.365-0.667-6.552c-0.105-1.253,0.049-2.543-0.18-3.767
			c-0.699-3.74,0.595-7.337,0.637-11.015c0.011-0.945-0.076-1.89-0.109-2.836c-0.038-1.072-0.042-2.146-0.104-3.216
			c-0.089-1.536-0.228-3.069-0.327-4.604c-0.092-1.437-0.415-2.853,0.191-4.304c0.351-0.839,0.308-1.839,0.457-2.765
			c0.069-0.431,0.085-0.901,0.275-1.278c0.806-1.594,1.668-3.16,2.512-4.735c0.075-0.14,0.21-0.263,0.239-0.41
			c0.678-3.446,3.119-4.957,6.244-5.767c0.837-0.217,1.705-0.48,2.432-0.928c1.662-1.025,3.573-1.18,5.358-1.765
			c4.666-1.529,9.208-0.69,13.798,0.349c2.028,0.459,4.19,0.371,6.187,0.917c2.439,0.667,4.869,0.695,7.338,0.683
			c0.788-0.004,1.578,0.105,2.363,0.202c1.343,0.165,2.677,0.442,4.024,0.52c1.231,0.07,2.475-0.125,3.71-0.083
			c0.858,0.029,1.705,0.328,2.565,0.386c1.142,0.077,2.292,0.033,3.438,0.049c0.774,0.011,1.547,0.038,2.321,0.056
			c0.155,0.003,0.347,0.059,0.459-0.01c2.395-1.484,5.217-1.062,7.797-1.72c0.556-0.142,1.467,0.562,1.833,0.314
			c2.082-1.412,4.471-0.576,6.67-1.068c1.579-0.354,3.29-0.337,4.919-0.206c2.822,0.227,5.62,0.732,8.439,1
			c1.97,0.188,3.96,0.173,5.941,0.251c0.591,0.023,1.184,0.04,1.773,0.087c1.67,0.132,3.338,0.354,5.01,0.395
			c1.229,0.03,2.463-0.23,3.697-0.244c0.778-0.008,1.56,0.305,2.336,0.287c1.496-0.035,2.988-0.209,4.482-0.312
			c0.352-0.024,0.711,0.042,1.06,0.003c0.444-0.051,0.883-0.156,1.319-0.259c0.601-0.141,1.204-0.281,1.795-0.458
			c1.895-0.567,3.799-0.77,5.787-0.527c1.125,0.137,2.292-0.062,3.438-0.112c1.271-0.055,2.543-0.089,3.812-0.174
			c2.896-0.194,5.789-0.51,8.689-0.595c2.312-0.067,4.633,0.095,6.944,0.226c3.634,0.205,7.265,0.454,10.894,0.716
			c1.429,0.103,2.849,0.345,4.279,0.425c1.317,0.074,2.646-0.033,3.965,0.031c0.896,0.043,1.781,0.307,2.678,0.359
			c1.183,0.068,2.369,0.019,3.555,0.031c0.736,0.007,1.475,0.035,2.211,0.052c0.155,0.003,0.346,0.059,0.462-0.008
			c2.149-1.236,4.593-1.117,6.925-1.48c0.614-0.096,1.282,0.171,1.905,0.099c0.675-0.078,1.324-0.355,1.983-0.552
			c0.328-0.098,0.648-0.283,0.981-0.306c2.068-0.14,4.14-0.277,6.21-0.351c1.518-0.055,3.01-0.6,4.576,0.009
			c0.455,0.176,1.2-0.385,1.807-0.619c0.265-0.102,0.513-0.321,0.774-0.335c1.836-0.099,3.674-0.201,5.513-0.216
			c1.748-0.014,3.496,0.081,5.246,0.122c2.575,0.06,5.153,0.079,7.729,0.193c0.633,0.028,1.252,0.362,1.88,0.547
			c2.228,0.656,4.474,1.254,6.677,1.981c1.654,0.546,3.303,1.159,4.855,1.935c0.738,0.368,1.31,1.138,1.853,1.809
			c1.513,1.869,1.888,4.32,3.154,6.326c0.461,0.728,0.894,1.508,1.142,2.324c0.238,0.779,0.053,1.704,0.35,2.446
			c1.033,2.597,0.254,5.424,1.148,8.034c0.424,1.23,0.745,2.518,0.912,3.806c0.156,1.209-0.262,2.56,0.12,3.658
			c0.771,2.22-0.101,4.381,0.136,6.596c0.323,3.035-0.154,6.154-0.273,9.238c-0.025,0.673,0.064,1.352,0.018,2.022
			c-0.312,4.339-0.562,8.67,0.27,12.99c0.133,0.683-0.074,1.426-0.08,2.142c-0.004,0.966,0.117,1.939,0.031,2.896
			c-0.084,0.963-0.371,1.906-0.535,2.863c-0.062,0.368-0.016,0.756-0.041,1.133c-0.049,0.692-0.111,1.386-0.174,2.078
			c-0.104,1.164-0.209,2.328-0.314,3.491c-0.203,2.201-0.48,4.398-0.58,6.604c-0.047,1.044,0.363,2.104,0.355,3.156
			c-0.015,1.728-0.319,3.457-0.281,5.182c0.059,2.729,0.381,5.449,0.44,8.177c0.058,2.612-0.095,5.2-0.485,7.823
			c-0.438,2.945-1.778,5.562-2.321,8.445c-0.317,1.69-1.132,3.188-2.662,4.369c-1.758,1.357-3.906,1.908-5.649,3.224
			c-0.689,0.521-1.455,1.241-2.229,1.296c-2.34,0.165-4.331,1.736-6.721,1.538c-0.631-0.054-1.254-0.257-1.881-0.257
			c-2.367-0.002-4.734,0.043-7.101,0.104c-0.25,0.007-0.512,0.201-0.737,0.354c-0.771,0.519-1.486,0.797-2.529,0.879
			c-2.518,0.197-5.008,0.867-7.48,1.46c-1.578,0.377-3.086,1.058-4.668,1.403c-1.107,0.239-2.287,0.144-3.436,0.196
			c-0.238,0.013-0.553-0.067-0.704,0.054c-1.039,0.824-2.177,0.394-3.298,0.36c-0.764-0.022-1.529,0.174-2.299,0.229
			c-1.222,0.088-2.445,0.168-3.67,0.199c-2.795,0.075-5.595,0.055-8.384,0.215c-0.914,0.054-1.784,0.709-2.707,0.812
			c-2.506,0.283-5.028,0.409-7.544,0.618c-1.609,0.134-3.217,0.289-4.82,0.476c-0.248,0.028-0.529,0.229-0.697,0.43
			c-0.416,0.498-0.76,0.526-1.319,0.148c-0.276-0.188-0.806,0.01-1.222,0.006c-2.217-0.021-4.436-0.054-6.653-0.074
			c-0.151-0.002-0.364,0.004-0.446,0.096c-1.164,1.301-2.615,0.466-3.92,0.471c-0.887,0.004-1.796-0.35-2.656-0.65
			c-2.488-0.873-3.555-2.574-3.709-5.232c-0.142-2.438,0.858-4.061,2.976-5.1c0.28-0.139,0.598-0.237,0.907-0.274
			c1.891-0.226,3.779-0.538,5.676-0.611c2.377-0.093,4.762,0.017,7.143,0.04c0.119,0.002,0.271,0.074,0.354,0.024
			c1.167-0.688,2.212-0.196,3.273,0.29c0.235,0.106,0.615,0.213,0.785,0.101c1.521-1.001,3.188-0.34,4.776-0.444
			c1.049-0.067,2.114,0.065,3.169,0.16c0.281,0.025,0.542,0.256,0.822,0.364c0.244,0.093,0.51,0.222,0.754,0.201
			c1.091-0.093,2.185-0.187,3.264-0.364c1.473-0.242,2.932-0.578,4.4-0.837c0.492-0.087,1.017-0.008,1.509-0.101
			c1.491-0.277,2.969-0.645,4.465-0.9c2.363-0.404,4.75-0.682,7.103-1.146c1.744-0.344,3.455-0.877,5.172-1.362
			c3.504-0.993,7.022-1.911,10.697-1.931c1.325-0.008,2.652,0.152,3.979,0.16c0.376,0.002,0.745-0.344,1.134-0.392
			c0.656-0.081,1.329-0.021,1.989-0.078c0.819-0.071,1.634-0.228,2.454-0.302c0.627-0.059,1.299-0.188,1.882-0.029
			c0.799,0.217,1.452,0.203,2.269-0.072c2.483-0.838,4.535-2.217,6.121-4.291c0.129-0.168,0.158-0.412,0.227-0.623
			c0.143-0.43,0.146-1.067,0.439-1.252c1.069-0.674,0.979-1.72,1.146-2.729c0.254-1.527,0.65-3.032,0.888-4.562
			c0.14-0.906,0.084-1.842,0.115-2.764c0.009-0.236-0.083-0.564,0.038-0.693c1.617-1.711,0.369-3.934,1.068-5.838
			c0.51-1.382,0.199-3.175,0.952-4.33c0.898-1.381,0.265-2.724,0.638-4.05c0.362-1.289,0.162-2.755,0.105-4.139
			c-0.061-1.446-0.357-2.89-0.348-4.331c0.021-2.7,0.189-5.398,0.295-8.1c0.023-0.588,0.005-1.182,0.062-1.767
			c0.048-0.491,0.209-0.97,0.261-1.461c0.088-0.841,0.129-1.687,0.188-2.531c0.064-0.927,0.184-1.855,0.18-2.782
			c-0.01-2.112-0.158-4.226-0.105-6.336c0.076-3.059,0.328-6.114,0.406-9.173c0.031-1.199-0.186-2.408-0.317-3.609
			c-0.282-2.565-0.569-5.13-0.886-7.692c-0.096-0.767-0.161-1.579-0.467-2.271c-0.904-2.055-0.615-4.186-0.586-6.309
			c0.041-3.121-0.233-6.178-2.201-8.782c-0.617-0.818-1.326-2.052-2.119-2.157c-1.819-0.243-2.635-2.504-4.648-2.051
			c-2.672-1.638-5.787-1.263-8.684-1.879c-2.42-0.515-4.877-0.745-7.34-0.056c-0.635,0.178-1.371-0.024-2.018,0.127
			c-1.057,0.247-1.977,0.276-3.066-0.139C218.546,31.142,217.232,31.24,217.143,32.3z M166.048,93.744
			c0.084-0.41,0.032-1.107,0.347-1.539c1.231-1.695,1.239-3.605,1.213-5.549c-0.006-0.483,0.024-0.967,0.051-1.45
			c0.058-1.062-0.059-2.178,0.24-3.168c0.246-0.81,0.595-1.505,0.193-2.337c-0.167-0.348-0.363-0.713-0.406-1.085
			c-0.311-2.743-1.686-4.719-4.146-5.969c-0.298-0.152-0.498-0.488-0.763-0.717c-0.367-0.317-0.711-0.794-1.135-0.887
			c-1.879-0.415-3.738-0.858-5.726-0.318c-1.646,0.447-3.427,0.391-5.074,0.833c-1.889,0.506-3.307,1.797-4.166,3.573
			c-0.481,0.998-0.788,2.082-1.176,3.126c-0.24,0.649-0.534,1.283-0.711,1.949c-0.172,0.644-0.136,1.35-0.349,1.976
			c-0.485,1.442-0.346,2.896-0.229,4.354c0.048,0.592,0.198,1.177,0.23,1.769c0.121,2.129,0.211,4.26,0.31,6.329
			c1.748,0.089,3.267-0.151,4.472-1.382c0.117-0.121,0.385-0.083,0.565-0.157c0.952-0.391,1.899-0.794,3.041-1.272
			c-0.022-0.016,0.214,0.258,0.429,0.24c1.565-0.119,3.125-0.306,4.688-0.448c0.246-0.022,0.512,0.036,0.75,0.112
			c1.883,0.604,3.755,1.244,5.646,1.822C164.838,93.699,165.385,93.674,166.048,93.744z M107.136,103.816
			c0.848-0.396,1.7-0.571,2.229-1.082c1.26-1.219,2.939-2.178,3.392-3.996c0.178-0.715,0.431-1.44,0.526-2.158
			c0.223-1.668,0.353-3.363,0.331-5.045c-0.021-1.61-0.23-3.227-0.454-4.825c-0.195-1.396-0.394-2.817-0.841-4.142
			c-0.344-1.019-0.858-2.32-1.687-2.758c-1.405-0.742-3.093-0.208-4.181,0.891c-1.362,1.375-3.065,1.398-4.708,1.787
			c-2.037,0.482-4.133,0.809-6.077,1.54c-1.025,0.385-2.253,1.331-2.573,2.294c-1.256,3.775-1.112,7.566,0.802,11.188
			c0.312,0.592,0.326,1.271,1.06,1.69c0.296,0.169,0.087,1.089,0.277,1.604c0.324,0.885,0.716,1.76,1.202,2.564
			c0.386,0.641,0.846,1.484,1.461,1.699c3.129,1.086,6.186,0.509,9.13-0.819C107.161,104.188,107.143,103.785,107.136,103.816z
			 M206.164,78.182c-0.946-0.006-1.484,0.385-1.548,1.464c-0.03,0.513-0.496,0.996-0.743,1.503
			c-0.094,0.189-0.141,0.406-0.178,0.615c-0.264,1.414-0.531,2.827-0.772,4.245c-0.163,0.957-0.344,1.916-0.411,2.88
			c-0.076,1.075-0.002,2.16-0.052,3.238c-0.067,1.454-0.425,2.939-0.218,4.348c0.154,1.041,0.965,2.008,1.562,2.959
			c0.484,0.77,1.092-0.047,1.645,0.008c0.115,0.012,0.238-0.006,0.354-0.028c0.323-0.068,0.688-0.077,0.954-0.24
			c0.332-0.2,0.537-0.653,0.88-0.787c1.348-0.524,1.829-1.646,2.17-2.899c0.049-0.184,0.075-0.396,0.187-0.536
			c1.405-1.8,2.614-3.685,3.042-5.99c0.055-0.295,0.697-0.778,0.788-0.724c0.842,0.522,0.903-0.219,1-0.635
			c0.417-1.774,0.81-3.558,1.131-5.353c0.471-2.627,0.922-5.26,1.28-7.903c0.145-1.052,0.023-2.108-1.004-2.847
			c-0.873-0.628-1.646-0.913-2.852-0.891c-1.74,0.031-2.822,0.592-3.674,1.961c-1.025,1.648-1.627,3.586-3.288,4.812
			C206.247,77.504,206.256,77.87,206.164,78.182z M90.829,73.149c-0.016,0.089-0.081,0.22-0.051,0.322
			c0.256,0.86,0.365,1.824,0.842,2.542c0.545,0.821,1.275,0.191,2.01-0.074c1.434-0.516,3.005-0.655,4.434-1.18
			c1.431-0.526,2.846-1.205,4.1-2.062c0.782-0.534,1.25-1.525,1.875-2.299c0.044-0.055,0.23,0.025,0.318-0.02
			c0.463-0.238,1.12-0.386,1.33-0.772c0.424-0.777-0.088-1.167-0.885-1.319c-1.154-0.221-2.341-0.394-3.429-0.811
			c-0.963-0.369-1.81-0.445-2.767-0.075c-1.559,0.605-3.128,1.197-4.726,1.685C92.081,69.636,90.844,71.187,90.829,73.149z
			 M150.6,106.764c0.105,0.139,0.211,0.275,0.317,0.414c1.661-0.225,3.462-0.123,4.942-0.764c1.484-0.645,3.055-1.346,4.238-2.705
			c0.844-0.967,0.782-1.898,0.508-2.816c-0.267-0.89-1.015-1.509-2.127-1.301c-1.119,0.21-2.24,0.529-3.365,0.549
			c-1.664,0.028-2.952,0.64-3.456,2.187C151.188,103.768,150.941,105.281,150.6,106.764z"/>
	</g>
</g>
</svg>
