<?xml version="1.0" encoding="utf-8"?>
<!-- Generator: Adobe Illustrator 16.0.0, SVG Export Plug-In . SVG Version: 6.00 Build 0)  -->
<!DOCTYPE svg PUBLIC "-//W3C//DTD SVG 1.1//EN" "http://www.w3.org/Graphics/SVG/1.1/DTD/svg11.dtd">
<svg version="1.1" id="Layer_1" xmlns="http://www.w3.org/2000/svg" xmlns:xlink="http://www.w3.org/1999/xlink" x="0px" y="0px"
	 width="400px" height="175px" viewBox="0 0 10087.077 2000" enable-background="new 0 0 10087.077 2000"
	 xml:space="preserve">
<g id="uhNBfC_1_">
	<g>
		<path fill="#eee" fill-rule="evenodd" clip-rule="evenodd" d="M2947.985,792.913c-6.356,16.381-11.482,33.417-19.536,48.928
			c-4.519,8.716-13.874,14.966-21.078,22.284c-3.124,3.187-7.297,5.811-9.342,9.562c-8.514,15.531-22.869,21.699-38.768,26.226
			c-14.88,4.247-29.687,8.861-44.294,14.022c-6.595,2.337-7.423,7.79-3.187,13.285c5.526,7.204,11.074,14.438,17.229,21.065
			c10.131,10.895,19.735,21.581,20.5,37.807c0.253,5.564,3.303,11.332,6.133,16.408c10.34,18.488,12.26,38.82,15.93,59.173
			c5.319,29.35,3.158,58.273,1.302,87.445c-0.169,2.463-0.295,6.818-1.291,7.077c-13.171,3.587-5.202,11.693-5.254,18.884
			c-0.074,8.861-3.398,17.735-5.577,26.543c-3.556,14.398-7.277,28.751-11.104,43.067c-0.452,1.718-2.13,3.115-2.959,4.771
			c-2.947,5.955-5.998,11.857-8.598,17.965c-1.269,2.988-0.565,7.693-2.582,9.311c-10.399,8.293-21.39,15.887-32.211,23.656
			c-4.333,3.104-8.777,6.05-13.16,9.089c-24.883,17.261-52.693,19.577-81.782,16.729c-29.383-2.854-56.509-12.461-82.442-25.988
			c-4.833-2.516-9.897-5.283-13.662-9.068c-13.791-13.936-29.341-26.855-40.091-42.911c-21.977-32.767-44.136-65.945-44.228-108.258
			c-0.022-13.433-5.37-26.781-6.051-40.296c-0.692-13.215,1.196-26.586,2.371-39.862c2.169-24.683,14.291-45.349,26.591-66.028
			c13.549-22.756,26.521-45.869,40.089-68.612c4.929-8.275,4.058-14.808-4.73-18.675c-16.212-7.091-32.675-13.571-49.18-19.956
			c-1.927-0.732-5.799,0.052-6.972,1.54c-5.916,7.425-12.932,14.621-16.433,23.165c-7.413,18.173-12.522,37.261-19.304,55.692
			c-3.903,10.644-8.683,21.035-14.074,30.997c-8.01,14.869-16.358,29.615-25.577,43.75c-13.157,20.235-27.439,39.745-40.863,59.825
			c-8.221,12.278-15.025,25.562-23.771,37.446c-9.482,12.906-19.904,25.26-31.02,36.781c-10.297,10.674-22.062,19.97-33.199,29.874
			c-15.812,14.044-30.903,29.007-47.67,41.788c-12.415,9.472-26.981,16.122-40.571,24.027c-0.365,0.209-0.806,0.721-1.08,0.646
			c-14.05-3.553-23.037,9.672-35.727,10.73c-22.188,1.877-44.334,4.465-66.554,5.629c-7.813,0.412-15.751-2.788-23.701-3.804
			c-10.507-1.345-21.475-0.725-31.573-3.431c-18.518-4.992-37.466-9.953-54.591-18.246c-30.942-14.992-52.545-41.671-72.668-68.234
			c-12.951-17.111-20.238-38.482-30.43-57.736c-2.255-4.267-7.193-7.246-8.998-11.598c-6.04-14.555-11.125-29.495-16.767-44.219
			c-1.626-4.239-3.083-9.092-6.134-12.111c-5.892-5.818-8.923-11.253-6.427-19.987c1.091-3.735-1.763-8.87-3.535-13.064
			c-2.234-5.243-7.792-10.393-7.392-15.205c2.307-27.737-19.682-48.718-20.123-75.534c-0.041-2.429-3.819-6.836-5.945-6.888
			c-20.354-0.473-40.727,0.281-61.073-0.335c-9.499-0.303-19.472-1.417-28.28-4.74c-12.301-4.623-23.594-11.936-35.591-17.504
			c-2.925-1.372-7.329-1.583-10.265-0.408c-2.412,0.954-5.748,5.769-5.086,7.204c7.717,16.559-5.254,28-10.14,41.084
			c-6.806,18.351-15.247,36.115-23.573,53.858c-7.844,16.724-16.61,33.021-24.642,49.651c-5.38,11.167-8.297,24.131-15.708,33.628
			c-15.499,19.821-25.65,43.236-46.182,59.917c-21.211,17.262-38.736,39.051-58.48,58.23c-4.823,4.666-12.237,6.522-18.047,10.309
			c-14.178,9.311-27.35,20.522-42.375,28.031c-10.98,5.494-24.201,6.835-36.597,9.039c-15.78,2.797-31.678,5.576-47.638,6.435
			c-7.54,0.421-15.542-3.152-22.955-5.911c-23.291-8.641-46.602-17.219-69.512-26.803c-25.482-10.635-46.738-26.51-62.571-50.042
			c-10.905-16.232-24.979-30.282-37.289-45.591c-4.657-5.811-9.28-11.975-12.313-18.709c-13.568-29.991-36.019-55.881-41.219-89.783
			c-2.999-19.451-5.831-39.006-10.382-58.133c-4.897-20.615-5.608-41.619-8.788-62.351c-1.435-9.437-8.313-16.012-18.771-18.991
			c-11.272-3.21-21.831-8.831-32.84-13.068c-16.034-6.176-32.089-12.331-48.374-17.812c-3.711-1.259-8.346,0.229-14.522,0.542
			c4.373,18.11,8.577,35.446,12.719,52.79c5.788,24.223,11.534,48.454,17.273,72.676c1.172,4.94,1.025,10.678,3.605,14.66
			c12.1,18.645,10.716,40.018,13.002,60.558c4.005,35.746,8.557,71.506,10.403,107.36c1.017,19.647-2.097,39.697-5.075,59.297
			c-2.884,19.054-7.373,37.941-12.405,56.528c-1.794,6.611-7.142,12.291-11.105,18.229c-9.564,14.342-22.976,23.594-39.303,28.603
			c-3.964,1.219-8.787,2.833-12.352,1.658c-16.546-5.463-32.958-11.43-49.086-18.033c-9.164-3.744-18.685-7.824-26.258-13.957
			c-12.13-9.808-22.669-21.583-34.109-32.278c-11.147-10.442-23.889-19.465-33.579-31.071
			c-16.755-20.059-33.522-40.52-46.987-62.812c-23.689-39.251-45.646-79.599-66.89-120.231
			c-16.705-31.974-30.662-65.396-47.031-97.555c-8.964-17.604-21.002-33.63-30.587-50.982
			c-12.625-22.882-23.058-47.031-36.564-69.346c-11.054-18.258-23.354-36.513-38.432-51.415
			c-23.877-23.612-48.907-46.871-76.633-65.546c-17.028-11.449-39.838-18.71-60.346-19.473
			c-27.455-1.028-57.822,2.454-76.771,25.975c-16.042,19.955-36.3,39.216-35.505,68.66c0.263,9.837-1.216,19.725-1.038,29.584
			c0.199,10.348-0.399,20.562,11.093,27.587c5.328,3.274,5.999,13.341,10.886,18.225c13.128,13.15,31.059,10.279,47.018,9.87
			c20.198-0.537,40.56-3.512,60.359-7.74c20.909-4.477,38.213,1.869,53.951,13.873c5.317,4.047,12.51,13.602,10.949,17.345
			c-6.262,14.941,5.451,19.408,12.216,27.349c10.224,12.027,8.882,26.132-2.664,36.51c-7.813,7.047-14.44,16.337-23.479,20.87
			c-12.677,6.332-26.833,10.812-40.854,13.105c-20.688,3.389-41.87,5.946-62.727,5.253c-10.947-0.356-22-7.737-32.381-13.137
			c-17.566-9.134-34.259-20.028-52.075-28.585c-9.208-4.423-20.06-5.464-30.139-8.084c-2.054-0.546-4.623-0.789-5.924-2.173
			c-18.884-19.88-41.094-37.75-55.25-60.61c-11.933-19.304-15.258-44.229-20.961-67.003c-7.542-30.108-8.788-61.292-3.778-91.491
			c4.764-28.694,16.675-54.812,39.998-75.504c13.442-11.932,21.904-29.475,32.569-44.533c1.615-2.277,2.578-5.118,4.477-7.101
			c3.648-3.838,7.633-7.381,11.68-10.799c7.236-6.094,13.875-13.466,22.106-17.669c17.847-9.081,35.916-19.117,55.093-23.771
			c14.944-3.618,31.71,0.26,47.661,0.984c2.033,0.095,4.948,2.506,5.851,1.791c12.447-9.719,26.938,2.685,39.576-3.847
			c1.036-0.546,2.684-0.681,3.764-0.282c36.858,13.8,78.896,12.898,110.817,41.219c13.611,12.069,32.068,18.75,45.456,31.028
			c29.466,26.98,58.691,54.559,71.422,94.742c3.219,10.119,11.786,18.424,16.483,28.222c12.91,26.834,24.603,54.244,37.74,80.959
			c4.91,9.977,13.12,18.281,18.688,28.002c4.09,7.138,5.515,15.781,9.551,22.934c13.748,24.439,28.577,48.298,42.061,72.875
			c7.182,13.089,11.944,27.475,18.76,40.773c8.819,17.271,19.012,33.807,27.82,51.064c6.565,12.869,11.555,26.552,17.878,39.555
			c3.859,7.95,8.588,15.539,13.57,22.86c4.435,6.522,9.437,12.751,14.796,18.541c2.703,2.901,6.763,4.58,10.203,6.813
			c1.982-3.313,4.382-6.42,5.861-9.94c13.087-31.258,2.245-62.216-1.458-93.251c-2.118-17.743-4.708-35.434-7.185-53.134
			c-4.623-33.066-8.882-66.188-14.208-99.159c-2.389-14.85-6.982-29.371-10.58-44.03c-0.304-1.249-0.19-3.062-0.974-3.652
			c-19.465-14.542-12.847-32.944-8.045-51.329c1.146-4.363,1.5-9.667,0.106-13.839c-6.187-18.512-2.371-27.684,15.75-33.17
			c18.801-5.704,37.708-9.534,57.756-6.081c18.53,3.188,37.76,2.915,55.976,7.152c24.945,5.807,42.03,24.001,58.586,42.521
			c5.011,5.643,12.658,8.912,19.086,13.267c2.263,1.539,4.886,2.789,6.69,4.748c5.587,6.112,13.881,5.075,14.166-2.988
			c0.493-14.303,8.65-24.391,14.89-35.811c4.426-8.062,6.933-17.261,11.84-24.977c3.502-5.496,9.574-9.365,16.347-15.701
			c-0.135-1.045-0.67-5.156-1.31-10.18c3.482-1.24,7.288-3.43,11.293-3.852c8.998-0.931,10.078-6.301,8.639-13.475
			c-3.123-15.496,5.854-25.562,19.663-32.042c4.112-1.921,7.696-5.234,11.063-8.409c3.584-3.379,6.898-7.152,9.804-11.137
			c3.083-4.237,5.526-8.944,8.965-12.131c5.222-4.303,10.331-8.727,15.687-12.825c1.963-1.493,4.448-2.823,6.827-3.119
			c11.545-1.37,23.217-1.821,34.658-3.742c8.494-1.436,16.567-5.976,25.042-6.73c27.137-2.403,51.33,7.949,73.936,21.099
			c7.822,4.55,12.533,14.365,18.898,21.546c5.819,6.566,11.313,13.601,18.068,19.097c25.627,20.857,27.252,50.522,30.409,79.759
			c0.042,0.42,0.221,0.962,0.022,1.257c-13.423,22.293-5.591,51.226-24.015,72.859c-5.421,6.375-6.606,17.834-14.187,25.229
			c-18.426,17.912-38.506,34.125-62.351,43.015c-24.589,9.164-50.649,14.615-76.328,20.54c-12.983,2.988-26.541,3.388-42.89,5.31
			c6.502,23.831,12.983,47.187,19.233,70.611c5.222,19.59,9.826,39.346,15.457,58.814c1.447,4.984,5.242,9.567,8.766,13.637
			c15.625,17.886,30.976,36.115,47.524,53.163c22.785,23.438,51.088,37.521,83.878,33.43c20.292-2.536,41.357-8.104,59.215-19.295
			c4.98-3.092,4.707-13.705,8.443-19.902c4.404-7.286,9.415-17.322,16.201-19.335c11.638-3.46,14.575-11.328,18.035-20.263
			c0.147-0.386-0.042-1.023,0.199-1.244c14.933-14.083,25.386-31.389,35.642-48.845c0.64-1.079,1.743-2.484,2.749-2.624
			c24.369-3.039,20.888-24.947,25.899-40.005c5.421-16.325,4.572-17.382,22.818-15.799c-7.614-18.32-0.366-34.762,5.033-51.217
			c3.386-10.274,7.614-20.627,13.35-29.717c7.917-12.574,9.741-27.02,0.765-39.502c-6.017-8.418-14.197-15.31-21.119-23.108
			c-3.543-4.038-6.397-8.695-9.7-12.963c-16.756-21.612-22.179-47.807-29.372-73.222c-1.542-5.4-0.934-11.464-1.091-17.219
			c-0.273-10.833-0.69-21.686-0.462-32.51c0.085-4.056,0.83-8.661,2.875-12.035c6.983-11.589,14.607-22.757,22.084-34.03
			c6.324-9.52,11.608-20.154,19.619-27.986c5.17-5.044,16.244-10.161,21.508-7.884c18.371,7.915,40.727,5.251,56.006,20.834
			c4.867,4.962,10.025,9.754,14.042,15.354c8.514,11.857,16.955,23.875,24.148,36.544c2.937,5.2,2.759,12.265,3.662,18.536
			c1.644,11.359,2.044,23,4.78,34.072c3.219,12.885,8.462,25.251,12.614,37.916c0.722,2.163,0.411,4.658,0.492,6.987
			c0.44,13.779,0.304,27.579,1.658,41.263c0.376,3.617,4.77,8.942,8.242,9.815c24.37,6.25,48.906,11.996,73.632,16.567
			c3.431,0.621,11.694-6.093,11.683-9.394c0-8.192-3.292-16.446-5.735-24.531c-1.343-4.424-5.17-8.544-5.245-12.864
			c-0.451-24.656-0.208-49.316-0.03-73.991c0.041-7.581-0.388-15.383,1.206-22.725c2.402-10.978,7.13-21.452,9.594-32.441
			c4.657-20.753,6.334-42.439,13.141-62.407c6.701-19.585,16.641-38.356,36.418-49.733c13.695-7.897,25.637-18.917,39.407-26.72
			c7.14-4.046,16.515-4.246,24.914-5.946c2.033-0.407,4.645,0.915,6.301,0.087c20.49-10.214,40.479-3.031,60.211,2.055
			c23.458,6.029,48.677,7.53,68.119,24.704c7.026,6.198,14.125,12.344,21.149,18.55c4.048,3.565,7.981,7.27,12.041,10.834
			c1.269,1.132,2.852,1.908,4.164,2.997c19.598,16.064,30.354,59.27,22.733,83.184c-4.552,14.252-4.938,29.775-8.327,44.442
			c-3.733,16.152-9.038,31.951-13.171,48.029c-1.75,6.827-1.161,14.417-3.637,20.887c-2.915,7.656-7.698,14.69-12.197,21.664
			c-10.706,16.633-21.233,33.387-32.852,49.391c-4.402,6.072-11.712,10.002-17.427,15.193c-4.393,3.985-7.866,9.082-12.595,12.542
			c-16.041,11.724-32.516,22.847-48.707,34.354c-8.127,5.776-17.291,10.809-23.509,18.276c-3.126,3.734-1.94,12.383-0.599,18.351
			c9.028,40.413,27.484,76.61,50.586,110.668c13.631,20.114,26.519,40.804,40.999,60.285c7.342,9.867,18.938,14.009,31.689,12.876
			c21.371-1.874,43.068-2.107,63.976-6.322c15.813-3.228,30.913-10.882,45.657-17.951c6.501-3.094,11.389-9.586,16.988-14.564
			c14.744-13.163,30.18-25.649,44-39.724c8.357-8.505,14.449-19.304,21.159-29.339c5.444-8.115,10.308-16.621,15.353-25.009
			c0.872-1.457,1.134-3.251,2.025-4.667c14.418-22.66,28.638-45.435,43.495-67.806c5.841-8.786,13.182-16.588,19.819-24.873
			c0.788-0.984,1.993-2.138,1.96-3.188c-0.451-22.092,14.366-38.764,20.772-58.437c7.979-24.525,5.422-30.84-18.255-39.931
			c-2.728-1.058-5.254-2.811-7.592-4.602c-13.034-9.924-26.259-19.651-38.873-30.095c-4.353-3.622-7.918-8.683-10.569-13.749
			c-4.878-9.364-12.94-14.872-20.835-21.299c-7.854-6.376-13.057-15.948-19.506-24.054c-4.047-5.066-8.849-9.616-12.3-15.028
			c-7.485-11.766-14.741-23.697-21.183-36.041c-2.545-4.844-2.201-11.125-3.909-16.516c-3.05-9.646-8.358-18.906-9.625-28.733
			c-2.078-16.264-11.471-32.494-1.941-49.369c1.387-2.428,2.17-5.872,1.742-8.588c-4.541-27.765,12.436-48.327,25.68-68.716
			c8.641-13.314,24.579-22.292,38.252-31.804c9.167-6.362,20.807-7.871,29.719-16.463c5.601-5.409,16.39-5.88,25.063-7.547
			c16.608-3.171,33.261-6.45,50.062-8.119c27.324-2.714,54.809-4.267,81.423,4.875c4.101,1.418,7.216,5.621,10.895,8.401
			c2.244,1.7,4.615,4.311,7.078,4.52c30.149,2.514,48.122,19.732,60.883,46.076c8.473,17.521,21.643,32.737,30.884,49.954
			c6.395,11.958,9.771,25.524,14.249,38.487c5.002,14.46,9.73,29.016,14.481,43.571c1.154,3.531,2.778,7.204,2.664,10.769
			c-0.734,22.857-1.868,45.731-3,68.587c-0.146,2.862-0.943,5.769-1.805,8.548c-4.875,15.583-12.393,30.901-13.809,46.767
			c-0.765,8.63,6.678,20.908,14.145,26.729c14.303,11.128,31.177,18.948,47.156,27.844c7.771,4.32,15.991,7.745,23.878,11.858
			c8.462,4.406,16.768,9.134,25.888,14.134c7.091-19.492,21.771-28.751,36.559-38.409c7.769-5.066,13.66-12.964,20.886-18.98
			c5.391-4.51,11.544-8.127,17.448-12.031c18.856-12.486,39.21-21.811,61.753-24.296c19.21-2.138,38.663-2.125,57.989-3.136
			c13.904-0.754,22.272,7.511,32.317,15.973c16.171,13.641,17.366,33.721,27.056,49.873
			C2947.797,789.474,2947.89,791.191,2947.985,792.913z M2438.924,587.865c1.993-25.992-19.703-50.487-40.465-48.349
			c-7.308,0.762-16.4,3.625-21.685,0.495c-11.073-6.589-18.676-0.842-24.852,5.03c-8.683,8.245-21.633,15.666-19.148,30.19
			c1.562,9.104,7.604,17.374,11.136,26.235c4.13,10.392,17.207,11.307,21.77,18.333c11.46,17.605,30.251,20.238,46.58,27.663
			c10.17,4.632,16.306-0.716,17.343-12.019c0.272-2.893,1.489-5.694,2.035-8.578
			C2434.521,611.659,2437.311,596.436,2438.924,587.865z M1225.564,783.685c4.927,10.205,7.404,21.833,14.534,28.577
			c10.213,9.676,26.906,5.525,41.011-6.974c5.567-4.927,10.035-11.463,16.231-15.28c8.725-5.369,27.694-33.326,28.354-43.652
			c0.305-4.74,1.71-9.542,3.377-14.039c5.526-14.902-7.402-38.634-22.043-40.006c-24.588-2.329-50.448,14.733-58.962,38.388
			c-2.851,7.898-6.952,15.34-10.255,23.069C1233.774,763.239,1230.009,772.803,1225.564,783.685z M1920.635,774.949
			c7.196-3.795,11.997-4.844,14.356-7.819c8.674-10.938,17.417-21.98,24.476-33.946c9.364-15.821,17.889-32.247,25.406-49.022
			c5.455-12.217,5.853-25.458,0.64-38.317c-4.068-10.054-9.312-11.021-16.955-3.899c-5.055,4.697-10.359,9.889-16.557,12.374
			c-13.412,5.391-16.704,16.568-19.629,28.628c-1.584,6.502-4.375,12.739-5.58,19.292c-1.804,9.711-2.799,19.59-3.858,29.415
			c-0.41,3.534,0.178,7.152-0.033,10.708C1922.358,751.902,1921.59,761.444,1920.635,774.949z M2721.002,1060.645
			c-1.604-8.713-3.387-17.396-4.729-26.174c-1.195-7.619-6.397-9.572-12.007-6.783c-6.229,3.093-13.861,7.195-16.567,12.92
			c-8.402,17.7-16.243,35.968-21.352,54.821c-3.492,12.972-2.161,27.263-2.642,40.98c-0.063,1.562,1.667,3.73,3.188,4.706
			c10.873,7.077,36.448-0.651,42.343-12.3C2720.163,1107.27,2721.317,1084.251,2721.002,1060.645z"/>
	</g>
</g>
<g id="aHdbG9_1_">
	<g>
		<path fill="#eee"  d="M5262.202,974.057c0,18.942,0,37.882,0,56.824c-1.912,3.256-4.813,6.304-5.571,9.816c-1.598,7.46-0.779,15.62-3.279,22.68
			c-8.934,25.332-18.751,50.33-28.465,75.365c-1.029,2.609-3.425,4.812-5.526,6.852c-7.191,6.917-16.608,12.49-21.255,20.771
			c-5.948,10.574-15.367,15.03-23.879,21.885c-8.052,6.474-16.228,9.942-25.605,12.634c-2.419,0.697-4.268,3.743-6.181,5.887
			c-7.966,8.954-17.447,14.084-29.873,14.775c-16.543,0.927-33.045,3.092-49.526,5.004c-9.208,1.074-18.919,7.109-26.298-4.412
			c-0.945-1.473-5.676-0.339-8.578-0.861c-3.238-0.59-6.917-0.902-9.48-2.69c-21.653-15.056-45.825-26.405-62.854-48.164
			c-9.461-12.085-24.112-19.987-34.456-31.531c-9.754-10.89-18.773-23.249-24.931-36.429
			c-15.725-33.74-31.281-67.715-43.769-102.715c-8.829-24.741-13.831-51.125-18.162-77.151c-4.878-29.301-9.502-59.028-9.818-88.607
			c-0.292-29.849-16.395-49.419-35.315-67.879c-11.417-11.137-26.405-7.903-39.08,1.914c-9.985,7.737-13.581,18.732-20.35,28.044
			c-21.444,29.514-32.919,61.845-34.414,98.193c-0.503,12.612-3.51,25.101-4.645,37.712c-0.819,9.104-0.441,18.333-0.567,27.497
			c-0.232,14.146-0.693,28.275-0.526,42.422c0.064,6.96,0.694,14.063,2.207,20.831c1.157,5.217,4.165,9.986,6.244,14.99
			c4.186,10.029,6.854,21.045,12.76,29.914c8.01,11.964,14.232,23.671,13.623,38.556c-0.126,3.383,2.964,7.169,5.193,10.343
			c2.019,2.838,5.674,4.664,7.252,7.673c7.652,14.693,15.01,29.535,22.157,44.481c4.897,10.216,8.24,20.751,6.454,32.522
			c-0.546,3.655,1.705,7.778,2.818,11.625c3.51,12.15,5.549,24.066-0.568,36.24c-6.978,13.876-17.637,27.035-10.742,42.212
			c-10.512,5.678-20.118,10.846-29.704,15.996c-11.185,0-22.387,0-33.592,0c-8.2-7.084-19.657-11.037-19.341-25.645
			c0.062-3.721-8.766-7.693-13.581-11.458c-4.162-3.237-9.985-5.466-12.362-9.669c-7.672-13.686-14.461-27.897-20.894-42.234
			c-3.763-8.369-7.502-8.911-14.23-3.047c-16.943,14.754-34.14,29.239-51.506,43.495c-4.328,3.551-9.899,5.589-14.588,8.765
			c-17.385,11.771-37.376,15.24-57.453,18.33c-17.595,2.715-35.296,4.688-52.911,7.275c-6.664,0.964-13.37,4.351-19.762,3.697
			c-7.821-0.798-15.515-4.246-22.935-7.294c-10.764-4.411-21.883-8.473-31.702-14.523c-15.45-9.525-29.515-21.321-44.965-30.841
			c-30.986-19.109-43.347-50.811-56.528-81.858c-4.937-11.669-8.07-13.665-18.919-7.651c-11.96,6.643-24.761,11.812-36.282,19.09
			c-19.634,12.379-39.207,16.732-63.023,12.231c-25.732-4.834-49.57-9.941-65.861-32.583c-1.872-2.564-5.698-3.617-8.244-5.825
			c-7.858-6.809-16.795-12.886-22.935-21.041c-6.453-8.601-10.931-18.985-14.923-29.114c-5.992-15.202-10.975-30.778-15.997-46.333
			c-1.809-5.591-0.463-13.664-3.976-16.963c-15.387-14.508-5.718-32.839-8.721-49.047c-2.417-12.967,0.503-26.926-1.578-40.004
			c-3.404-21.439,1.534-42.02,9.206-60.522c6.539-15.785,12.573-28.966,1.975-46.121c-8.428,0.986-17.972,1.03-26.885,3.387
			c-17.132,4.516-34.244,5.254-51.609,2.942c-7.777-1.009-14.063,1.048-12.151,9.772c3.071,13.937-7.505,28.275,1.809,41.835
			c0.526,0.756-1.408,2.942-1.66,4.539c-1.851,12.09-3.573,24.197-5.277,36.309c-0.105,0.756,0.483,1.595,0.632,2.396
			c1.323,7.147,3.15,14.232,3.802,21.44c0.736,7.822-0.209,15.808,0.61,23.607c1.199,11.354,6.665,23.379,4.269,33.743
			c-3.911,17.067-0.673,33.635-1.935,50.346c-0.526,7.082-2.795,14.02-3.678,21.106c-1.115,9.016-1.684,18.099-2.397,27.156
			c-1.031,12.573-0.274,25.586-3.407,37.588c-3.426,13.033-12.445,24.703-15.304,37.778c-3.468,15.785-10.237,26.677-23.649,36.349
			c-14.506,10.447-29.157,21.775-46.1,24.174c-12.489,1.744-26.425,0.986-39.291,0.483c-13.749-0.57-27.705-9.146-40.55-16.146
			c-34.247-18.625-52.891-52.303-72.042-83.416c-18.541-30.145-29.809-64.811-43.661-97.771
			c-9.125-21.672-17.154-43.808-25.605-65.775c-5.549-14.403-11.603-28.653-16.377-43.329
			c-8.135-25.037-15.409-50.348-23.144-75.531c-11.31-36.765-22.179-73.7-34.434-110.151c-4.414-13.121-10.175-26.888-19.089-37.126
			c-12.507-14.38-30.018-23.189-50.075-19.172c-16.354,3.278-32.456,6.221-43.977,22.702
			c-12.908,18.523-28.253,35.383-33.173,58.024c-5.968,27.283,1.746,52.824,18.039,73.995c9.521,12.32,20.979,24.089,39.059,28.884
			c18.015,4.795,33.972,17.198,50.956,25.984c14.926,7.733,28.168,16.585,30.924,35.104c0.547,3.661,2.585,7.147,4.246,10.556
			c8.325,17.237,3.343,29.597-15.892,33.509c-14.506,2.961-29.495,14.629-44.672,0.965c-0.882-0.778-3.277,0.252-4.961,0.208
			c-7.903-0.252-17.259,2.021-23.355-1.447c-12.444-7.065-26.256-4.417-39.207-8.452c-20.558-6.391-39.182-14.255-54.403-29.009
			c-12.401-12.046-23.503-25.415-35.063-38.304c-5.108-5.695-11.248-10.973-14.673-17.616c-12.069-23.376-17.659-49.024-18.775-74.9
			c-0.649-15.554-10.278-26.236-14.314-39.625c0-10.342,0-20.667,0-31.01c2.648-6.302,5.718-12.506,7.82-19.001
			c2.312-7.065,3.804-14.42,5.549-21.693c0.463-1.978-0.167-5.235,0.904-5.887c11.121-6.538,9.165-18.606,12.676-28.379
			c2.964-8.286,5.424-17.606,11.015-23.936c9.104-10.35,20.435-18.814,31.07-27.749c8.367-7.008,17.892-12.79,25.565-20.441
			c11.686-11.669,25.058-17.62,41.518-17.681c5.444-0.021,10.867-2.03,16.291-3.134c1.723,0,3.447,0,5.171,0
			c0.695,0.926,1.326,2.609,2.104,2.691c19.97,1.935,40.801-0.957,59.028,10.668c14.252-6.104,24.638,5.603,36.83,8.63
			c11.855,2.956,23.02,9.368,33.824,15.441c4.438,2.504,7.904,12.129,10.469,11.625c12.803-2.492,16.083,9.082,23.69,13.864
			c9.671,6.047,13.308,17.871,24.849,23.336c6.432,3.026,8.6,15.094,12.633,23.124c3.573,7.103,7.087,14.233,10.617,21.358
			c6.769,13.663,17.154,26.74,19.549,41.139c5.488,33.213,12.046,66.261,16.84,99.601c2.669,18.606,6.453,37.061,9.859,55.562
			c0.523,2.856,0.819,6.43,2.647,8.26c10.513,10.512,9.419,24.909,13.645,37.565c8.051,23.988,12.108,49.863,32.266,68.509
			c5.698,5.255,8.956,13.307,12.908,20.31c6.958,12.382,13.183,25.206,20.499,37.353c5.127,8.539,12.002,6.413,16.123-0.756
			c4.142-7.208,6.726-15.451,9.206-23.48c4.208-13.559,8.369-27.18,11.438-41.013c1.787-8.029,1.68-16.523,1.954-24.806
			c0.526-15.663,0.441-31.343,1.157-47.007c0.59-12.654,3.174-25.327,2.776-37.943c-0.696-20.914-2.902-41.79-4.773-62.666
			c-1.765-19.78-3.385-39.583-6.034-59.236c-2.309-17.133-8.008-34.014-8.449-51.106c-0.566-21.672,2.018-43.496,4.563-65.106
			c1.092-9.259,4.413-18.646,8.616-27.022c4.039-8.017,10.556-14.785,16.965-23.428c2.524-1.831,7.169-4.774,11.352-8.272
			c7.505-6.318,14.799-10.522,25.478-6.6c8.618,3.165,18.1,5.139,27.265,5.457c18.899,0.669,30.083,11.202,38.323,26.541
			c5.046,9.425,7.759,20.15,20.203,24.036c12.402,3.87,15.053,15.389,18.605,26.658c5.025,15.91,11.793,31.679,26.949,40.821
			c4.521,2.713,11.92,3.764,16.776,2.082c7.399-2.565,13.706-8.221,20.517-12.528c21.652-13.708,42.928-28.15,65.125-40.93
			c26.236-15.134,53.251-28.979,80.052-43.104c13.877-7.308,27.583-15.397,42.256-20.593c16.562-5.864,34.096-9.143,51.312-13.02
			c9.88-2.217,20.034-5.034,29.978-4.721c22.093,0.683,44.125,2.987,66.113,5.129c3.53,0.347,8.998,2.557,9.795,5.1
			c2.816,8.934,9.776,8.859,16.777,10.417c7.545,1.669,12.74,4.464,16.775,13.715c5.842,13.39,3.7,27.253,7.483,39.634
			c6.117,19.972-8.598,35.466-6.559,53.733c0.084,0.948-2.711,1.935-3.448,3.3c-2.291,4.313-4.645,8.682-6.265,13.269
			c-2.837,7.986-4.918,16.25-7.735,24.236c-4.142,11.707-9.65,23.041-12.718,35.021c-3.049,11.817-3.701,24.242-5.613,36.37
			c-2.566,16.268-4.289,32.792-8.368,48.687c-3.321,12.972-5.57,25.353-2.271,38.552c0.904,3.556,0.591,7.842-0.503,11.394
			c-6.875,22.351-14.149,43.666-7.463,68.492c6.287,23.354,6.202,48.368,16.039,71.18c8.515,19.759,11.963,40.972,24.009,60.162
			c8.723,13.897,16.774,28.087,27.767,40.32c10.701,11.878,24.428,14.568,39.627,11.12c8.851-2.016,17.659-4.16,26.595-6.264
			c4.349-4.664,9.228-10.299,14.567-15.533c12.675-12.447,27.498-23.293,37.88-37.399c11.625-15.829,17.87-34.075,15.135-55.602
			c-4.372-34.349-5.275-69.119-8.113-103.68c-2.291-28.022-5.15-56.023-8.012-84.003c-1.071-10.556-2.772-21.045-4.265-31.575
			c-3.7-26.153-7.674-52.28-11.121-78.456c-2.166-16.585-3.425-33.296-5.361-49.904c-2.795-23.883-3.614-47.281,12.236-67.861
			c1.954-2.543,1.912-6.504,3.403-9.512c2.669-5.456,4.5-13.285,8.978-15.524c15.134-7.547,31.174-13.307,47.087-19.128
			c2.398-0.874,8.011,0.817,8.725,2.648c8.997,23.284,36.178,35.339,38.302,63.065c0.503,6.705,4.812,13.456,8.576,19.424
			c1.388,2.209,7.549,4.144,9.165,2.965c4.836-3.534,8.39-8.747,12.615-13.138c10.51-10.889,20.853-21.928,31.742-32.396
			c5.845-5.59,12.11-11.32,19.237-14.893c17.552-8.8,35.755-16.25,53.585-24.471c23.271-10.73,47.213-17.638,71.599-5.191
			c13.095,6.686,26.235,14.99,36.306,25.489c9.5,9.92,13.662,24.827,22.723,35.338c6.056,7.021,10.679,13.242,12.235,22.45
			c3.341,19.993,7.756,39.794,11.247,59.744c2.983,17.155,5.508,34.37,7.862,51.607c3.047,22.159,5.423,44.421,8.68,66.536
			c3.156,21.632,11.877,43.682,9.546,64.601c-3.829,34.244,4.98,64.366,18.371,94.05c9.776,21.693,26.849,38.343,43.959,54.572
			c7.924,7.547,16.312,14.715,23.521,22.893c13.287,15.115,32.605,4.1,48.625,11.921c9.123,4.456,26.907-1.366,37.041-8.136
			c16.796-11.229,25.834-30.777,29.409-49.992c3.951-21.337,2.629-43.703,3.047-65.649c0.105-5.338-0.841-11.329-3.277-15.999
			c-9.292-17.954-17.681-36.852-37.778-46.185c-2.373-1.092-4.182-3.991-5.652-6.412c-11.583-19.046-22.304-38.657-34.708-57.158
			c-9.377-13.956-13.306-28.002-8.662-44.291c2.732-9.587,3.763-19.973,8.177-28.698c7.695-15.259,22.956-22.915,37.376-30.374
			c18.415-9.526,38.365-14.403,58.967-9.438c8.387,2.017,18.605,5.843,23.166,12.277c10.892,15.324,26.151,27.496,30.041,48.351
			c3.847,20.619,21.358,36.009,25.395,58.058c2.565,14.129,1.764,29.223,10.656,43.265c5.488,8.682,0.422,23.692,1.346,35.756
			C5257.073,962.033,5260.247,967.984,5262.202,974.057z M4268.69,731.613c-8.661,2.038-14.82,1.934-18.96,4.751
			c-15.117,10.298-32.649,19.129-43.58,33.005c-19.906,25.206-47.742,44.838-57.747,77.404c-0.125,0.416-0.169,1.047-0.421,1.195
			c-12.611,6.391-13.349,19.549-17.763,30.67c-1.387,3.491-4.394,6.265-6.054,9.672c-2.524,5.235-6.053,10.617-6.435,16.125
			c-0.966,13.746-1.386,27.661-0.189,41.347c1.408,15.938,3.365,32.101,7.799,47.364c2.587,8.869,10.197,16.415,16.043,24.176
			c13.241,17.615,45.679,14.398,56.588-4.521c4.94-8.6,13.477-15.051,19.279-23.249c4.181-5.908,7.61-12.825,9.396-19.802
			c2.27-8.977,1.324-18.815,3.993-27.601c3.721-12.216,10.196-23.567,14.252-35.697c5.866-17.576,11.69-35.274,15.558-53.333
			c4.076-19.006,3.383-39.313,9.206-57.619C4276.551,773.929,4268.563,754.653,4268.69,731.613z"/>
	</g>
</g>
<g id="LtUELU_1_">
	<g>
		<path fill="#eee" fill-rule="evenodd" clip-rule="evenodd" d="M6344.443,424.863c-3.226,20.077-7.825,39.963-10.773,60.057
			c-6.246,42.575-11.705,85.254-17.695,127.873c-1.245,8.834-2.868,17.691-5.292,26.251c-7.866,27.752-3.963,57.633-17.376,84.687
			c-5.987,12.124-5.379,27.391-8.584,41.058c-2.78,11.936-7.064,23.513-10.122,35.405c-3.478,13.558-3.14,29.249-10.141,40.486
			c-12.63,20.243-4.599,39.539-1.877,58.706c3.563,25.118,0.211,48.037-11.768,70.03c-0.611,1.12-1.771,2.193-1.811,3.313
			c-1.161,34.538-0.93,69.184-3.882,103.557c-1.476,17.289,0.062,33.338,6.516,48.73c4.407,10.503,10.354,20.838,17.671,29.479
			c8.455,9.979,18.324,19.357,29.227,26.466c9.553,6.201,21.298,9.153,32.243,13.052c7.085,2.534,14.38,5.252,21.743,5.884
			c5.689,0.466,11.616-2.844,17.52-3.331c14.91-1.222,29.904-1.393,44.812-2.783c6.196-0.57,12.229-3.141,18.344-4.767
			c12.989-3.436,12.591-4.277,6.749-15.56c-10.292-19.824-25.009-36.251-38.105-53.986c-4.639-6.262-8.139-14.675-8.708-22.371
			c-0.886-11.936-0.169-23.684-7.675-34.162c-1.352-1.875,0.654-5.966,0.61-9.022c-0.084-4.854,0.845-10.44-1.201-14.404
			c-9.128-17.796-17.988-36.356-15.033-56.324c5.144-34.752,10.076-70.789,48.624-87.574c2.025-0.885,4.324-3.584,4.618-5.695
			c2.362-17.627,14.721-29.374,27.246-38.523c9.74-7.108,15.393-16.493,23.28-24.463c4.617-4.68,10.964-7.759,16.805-11.134
			c12.338-7.147,24.209-15.794,37.473-20.518c17.333-6.219,35.618-10.797,53.876-13.157c15.817-2.067,32.139-0.191,48.227,0.166
			c15.081,0.318,26.234,8.669,36.144,18.834c8.857,9.088,18.853,17.649,25.327,28.298c10.669,17.522,19.609,36.225,28.025,54.994
			c13.705,30.6,7.527,63.158,7.441,95.018c-0.018,12.276-4.197,24.607-3.584,36.797c1.073,21.551-7.91,40.067-16.048,58.435
			c-12.61,28.489-27.435,56.028-41.835,83.694c-8.73,16.783-18.495,33.044-27.751,49.556c-5.906,10.521-3.185,15.623,9.003,16.993
			c2.552,0.275,5.652-0.379,7.612,0.825c26.17,16.108,54.278,8.751,78.994,0.588c28.107-9.253,56.85-12.249,85.171-18.617
			c0.82-0.191,1.896-0.696,2.465-0.383c18.726,10.253,43.734,6.497,57.82,27.879c8.31,12.633,24.924,22.776,19.486,39.456
			c-7.275,22.371-11.093,46.325-38.823,58.745c-28.147,12.611-56.936,15.815-86.202,19.548c-14.975,1.921-30.218,2.656-45.338,2.492
			c-13.579-0.149-27.582-0.507-40.614-3.86c-31.037-7.993-61.3-19.043-92.466-26.382c-18.959-4.449-31.146-18.008-46.646-26.99
			c-4.3-2.468-9.804-3.545-14.843-3.902c-22.966-1.623-41.753,15.101-64.485,14.931c-14.002-0.082-28.005-0.191-41.984,0.209
			c-18.407,0.55-37.028,3.734-55.144,1.858c-21.213-2.216-41.964-8.707-62.965-13.199c-4.535-0.951-9.362-0.72-13.771-2.006
			c-8.012-2.381-17.187-3.796-23.322-8.771c-6.345-5.146-12.188-9.154-20.221-10.862c-22.543-4.746-38.654-19.441-53.562-35.803
			c-6.854-7.509-15.226-14.09-20.246-22.65c-8.982-15.328-20.138-30.26-20.452-49.132c-0.192-11.535-9.849-11.492-16.238-12.63
			c-3.752-0.676-10.521,4.805-12.905,9.171c-10.858,19.884-19.231,41.248-31.209,60.37c-12.25,19.593-27.855,37.031-47.086,50.612
			c-6.771,4.767-10.334,13.157-20.752,14.106c-5.228,0.486-11.66,6.725-14.4,11.998c-9.448,18.284-25.958,21.32-43.608,21.974
			c-12.252,0.462-25.243,1.983-36.692-1.243c-22.708-6.411-45.737-13.623-66.465-24.608c-16.07-8.521-31.211-21.405-42.429-35.723
			c-13.346-17.082-23.701-36.479-29.796-58.497c-4.575-16.574-6.686-32.558-6.328-49.259c0.065-3.14,0.887-8.33,2.72-9.045
			c12.994-5.041,6.666-10.736,1.458-17.104c-4.787-5.838-7.275-11.385-5.104-20.391c3.732-15.582,3.477-32.074,5.906-48.035
			c1.75-11.556,5.249-22.837,7.674-34.311c0.508-2.358-0.211-4.975-0.421-8.56c-20.182,7.212-40.277,12.188-55.313,27.644
			c-0.294,0.317-0.609,0.654-0.966,0.845c-24.885,12.421-43.147,32.619-60.86,53.054c-13.328,15.416-23.133,34.12-37.513,48.309
			c-10.313,10.188-10.06,24.739-20.16,34.482c-5.714,5.504-8.054,14.485-11.978,21.864c-7.505,14.129-15.055,28.258-22.69,42.344
			c-0.949,1.731-3.9,3.375-3.648,4.596c3.714,17.797-9.424,31.547-11.344,48.397c-1.982,17.482-9.995,32.706-26.486,45.169
			c-9.362,7.063-19.991,11.177-26.693,16.34c-11.895-2.781-21.912-5.102-31.948-7.467c-2.405-0.566-5.482-0.482-7.085-1.957
			c-16.576-15.459-31.863-30.661-36.121-55.521c-4.114-23.977-7.108-47.659-4.051-71.488c2.803-21.802,8.351-43.019,24.462-60.222
			c6.517-6.938,7.715-19.126,14.571-25.371c15.668-14.255,19.61-35.742,33.971-50.354c9.593-9.765,19.358-19.336,29.246-28.805
			c6.791-6.519,13.54-13.204,20.984-18.938c12.207-9.405,25.051-17.988,37.493-27.098c6.051-4.426,11.45-9.869,17.795-13.789
			c14.911-9.192,33.085-15.075,44.494-27.351c9.997-10.754,20.498-18.027,33.087-23.805c8.057-3.712,16.217-7.147,24.166-11.029
			c26.253-12.842,51.937-27.015,78.844-38.296c14.636-6.136,31.254-7.632,47.045-10.902c18.642-3.837,37.284-7.779,56.07-10.837
			c13.834-2.258,27.878-3.31,41.859-4.617c21.887-2.067,43.779-4.448,65.709-5.63c25.323-1.374,50.733-2.512,76.061-1.88
			c9.7,0.236,19.188,5.948,28.952,8.521c15.118,3.986,17.734,1.919,19.566-13.139c0.403-3.331,1.246-6.916,2.996-9.676
			c8.604-13.75,3.796-27.792,1.476-41.815c-2.825-17.125-6.621-33.678,6.557-49.597c4.87-5.865,4.642-17.102,4.346-25.811
			c-0.717-21.425,4.153-40.594,17.8-57.402c1.77-2.15,3.855-5.944,3.099-7.967c-6.179-16.68-1.521-33.761-0.928-50.315
			c0.507-13.54,7.424-26.823,11.49-40.215c0.866-2.805,2.471-5.653,2.364-8.434c-0.632-19.039-3.331-38.188-2.006-57.083
			c1.141-16.339,6.665-32.388,10.395-48.54c1.205-5.146,2.934-10.165,4.326-15.268c1.94-7.064,4.133-14.085,5.588-21.276
			c1.138-5.634,0.801-11.579,2.023-17.208l1.427-13.508c2.677-13.549,8.497-26.138,3.563-40.634
			c-1.499-4.439,2.424-10.553,3.267-15.996c2.805-18.062,6.474-36.09,7.654-54.279c1.182-18.005,13.497-27.02,25.389-36.64
			c5.633-4.543,13.686-6.302,18.812-11.225c23.278-22.353,47.38-12.403,71.631-2.9c1.857,0.724,4.281,2.381,4.702,4.047
			c4.072,16.492,16.153,30.416,13.791,49.176c-1.434,11.365,1.711,23.234,1.138,34.791c-0.758,15.249-2.951,30.451-4.912,45.623
			c-2.173,16.85-4.659,33.656-7.254,50.441L6344.443,424.863z M5890.144,1137.524c-1.119,0.253-2.259,0.506-3.395,0.737
			c4.216,20.16,7.843,40.464,12.862,60.394c3.838,15.161,13.876,25.872,29.543,29.29c26.843,5.862,45.591-8.097,62.167-26.784
			c10.964-12.354,20.938-25.977,33.527-36.416c12-9.887,21.741-19.524,23.533-35.742c0.485-4.343,3.416-9.065,6.56-12.358
			c9.91-10.309,10.017-23.7,12.166-36.33c1.711-10.017,0.862-20.561,3.27-30.346c4.427-17.967,0.926-27.665-15.376-35.807
			c-9.422-4.701-18.723-9.699-28.402-13.852c-2.784-1.202-6.662,0.145-10.037,0.314c-4.092,0.192-8.203,0.634-12.293,0.463
			c-20.455-0.864-40.551,1.775-57.928,12.633c-9.32,5.84-16.932,15.163-23.741,24.103c-11.348,14.865-21.448,30.683-32.015,46.138
			c-0.44,0.631-0.42,1.665-0.42,2.512C5890.144,1103.488,5890.144,1120.504,5890.144,1137.524z M6603.476,999.762
			c0.466-0.192,0.949-0.358,1.414-0.549c-2.257-20.688-3.882-41.48-6.959-62.059c-2.277-15.289-11.305-17.648-22.966-7.635
			c-6.112,5.255-12.482,11.935-19.757,13.666c-12.273,2.931-15.562,12.145-20.2,21.106c-1.372,2.639-2.425,5.465-3.986,7.972
			c-17.776,28.445-26.781,57.947-12.357,90.927c3.143,7.213,2.997,15.965,6.581,22.859c3.646,7,9.511,13.18,15.518,18.408
			c1.624,1.395,8.373-0.886,11.03-3.331c5.818-5.396,10.522-11.998,15.69-18.112c4.025-4.766,9.361-8.943,11.828-14.426
			c8.287-18.45,8.815-39.875,21.655-56.807C6603.203,1008.85,6602.696,1003.831,6603.476,999.762z"/>
	</g>
</g>
<g id="lNPsrR_1_">
	<g>
		<path fill="#eee" fill-rule="evenodd" clip-rule="evenodd" d="M7483.042,1586.737c-0.584-20.558-3.981-37.182,1.236-74.569
			c1.298-2.164-4.418-6.355-3.777-9.305c1.027-4.817,3.197-9.387,4.98-14.019c0.914-2.361,3.092-6.54,2.82-6.712
			c-15.138-8.956-4.354-23.043-4.824-33.459c-2.585-58.22-2.745-116.58-2.128-174.893c0.08-8.464-6.236-20.831,6.619-27.357
			c1.104-0.554,1.229-4.576,0.659-6.672c-7.027-25.578-6.598-51.071-2.829-77.266c2.46-16.87-0.211-34.444,0.236-51.665
			c0.639-23.779,3.189-47.561,2.819-71.304c-0.312-18.476-4.126-36.867-5.725-55.369c-0.655-7.272,0.653-14.705,0.737-22.094
			c0.039-3.474-0.757-6.931-1.086-10.417c-0.819-8.48-1.012-17.098-2.525-25.438c-1.584-8.832-4.443-17.429-6.75-26.125
			c-1.791-0.204-3.622-0.428-5.411-0.656c-4.763,9.448-9.439,18.967-14.297,28.363c-14.673,28.514-29.481,56.929-43.949,85.517
			c-2.011,4.026-2.624,8.811-3.552,13.339c-4.749,23.467-20.807,38.9-37.262,54.478c-6.534,6.159-9.961,15.496-16.077,22.222
			c-18.402,20.345-37.451,40.11-56.229,60.091c-0.873-1.299-1.749-2.596-2.574-3.894c-5.774,3.106-11.571,6.094-17.239,9.359
			c-16.506,9.455-33.099,18.745-49.344,28.646c-36.732,22.411-68.724,0.957-101.574-10.952c-12.813-4.636-26.306-9.57-36.729-17.828
			c-12.35-9.796-26.882-17.098-37.792-27.118c-12.696-11.678-21.787-29.878-26.48-46.894c-4.348-15.817-1.225-33.794-0.488-50.756
			c0.151-3.493,3.562-8.062,6.788-9.947c16.209-9.513,32.317-19.442,49.527-26.775c7.949-3.394,18.737-3.136,27.48-1.11
			c14.201,3.262,27.487,11.251,41.767,13.594c13.176,2.188,27.445,1.072,40.743-1.267c33.041-5.858,65.184-14.878,92.967-34.966
			c2.676-1.953,5.973-4.755,6.565-7.632c5.304-25.979,19.505-47.256,34.051-68.664c3.849-5.632,1.704-15.039,4.976-21.363
			c11.997-23.29,25.231-45.94,37.614-69.013c2.518-4.696,3.708-10.156,4.957-15.38c1.389-5.842,0.587-12.775,3.477-17.554
			c9.036-14.72,6.329-32.014,11.58-47.082c6.482-18.687,6.52-37.241,7.591-56.385c0.611-11.028,9.452-21.671,14.86-32.351
			c7.99-15.796,18.712-30.746,23.561-47.43c5.001-17.082,15.236-22.586,30.348-24.107c5.164-16.543,16.366-24.444,34.028-23.288
			c15.728,1.015,31.395,3.208,47.13,4.074c17.483,0.942,23.209,15.513,31.455,26.66c3.596,4.873,3.953,12.217,5.489,18.511
			c3.266,13.381,7.352,26.812-1.141,39.931c-0.973,1.463-1.255,3.533-1.347,5.349c-1.335,31.364-8.119,61.383-21.665,89.825
			c-0.798,1.694,0.441,4.367,0.747,6.678c7.717-1.926,58.793-78.458,61.618-92.189c13.089,0.32,23.577-1.943,21.432-20.059
			c-0.502-3.979,8.871-10.952,14.948-13.514c12.908-5.411,26.782-8.402,39.923-13.237c7.208-2.649,14.583-6.049,20.423-10.876
			c13.628-11.296,29.439-9.266,44.99-9.043c26.087,0.396,51.273,2.905,72.288,21.769c6.753,6.07,17.646,7.254,25.896,11.941
			c22.19,12.577,43.03,28.026,66.205,38.235c22.498,9.893,34.397,28.676,50.119,45.009c19.648,20.414,27.75,44.256,32.736,70.869
			c3.448,18.334,11.874,35.886,14.032,54.24c2.528,21.548,1.073,43.64,0.595,65.467c-0.502,22.999,2.911,26.718,25.989,25.7
			c2.77-0.109,5.66,0.115,8.305,0.832c3.49,0.908,6.811,2.482,10.22,3.76c-0.124-3.504-0.042-7.023-0.419-10.513
			c-3.728-34.711-1.291-69.035,5.396-103.297c3.937-20.112,5.382-40.708,9.003-60.903c1.365-7.729,7.189-14.709,8.277-22.404
			c1.826-12.719-0.238-26.133,2.52-38.543c1.957-8.782,8.735-16.693,14.158-24.448c6.389-9.158,13.314-17.982,20.582-26.49
			c8.872-10.41,16.74-22.793,27.871-29.958c19.821-12.756,41.853-22.097,62.812-33.148c9.18-4.842,17.416-12.252,27.073-15.178
			c15.786-4.772,32.348-7.031,48.64-9.99c41.249-7.513,78.48,4.163,111.99,26.938c16.125,10.964,31.366,24.104,40.084,43.171
			c10.27,22.497,18.504,45.269,21.184,70.097c2.117,19.51-1.074,38.058-3.572,57.302c-3.173,24.353-14.498,44.498-24.312,65.36
			c-6.814,14.459-19.714,25.959-28.749,39.529c-14.13,21.236-28.972,41.752-49.32,57.516c-6.212,4.814-12.946,8.984-19.615,13.157
			c-16.276,10.176-32.149,21.153-49.117,30.038c-23.913,12.518-32.407,25.673-21.976,49.354
			c12.154,27.634,27.764,53.915,43.813,79.573c10.088,16.136,22.054,31.95,36.36,44.195c7.745,6.635,23.111,9.34,33.427,6.886
			c16.995-4.023,32.726-13.578,48.926-20.947c9.149-4.178,19.301-7.257,26.957-13.38c7.022-5.609,11.426-14.566,16.7-22.221
			c1.777-2.625,2.278-6.153,4.096-8.734c10.578-14.826,21.275-29.604,32.191-44.191c4.141-5.513,9.084-10.439,13.533-15.73
			c1.398-1.605,3.03-3.412,3.469-5.353c2.6-11.32,1.508-25.493,8.037-33.429c10.744-13.001,5.956-27.429,9.459-40.787
			c4.305-16.256,5.098-33.469,7.417-50.256c0.25-1.879-0.179-4.591,0.89-5.446c19.788-16.079,8.469-38.915,12.637-58.327
			c2.74-12.701,3.85-25.942,4.166-38.983c0.473-19.766-1.38-39.609-0.447-59.335c1.168-24.326,2.369-48.914,6.944-72.729
			c3.355-17.352,12.059-33.708,18.701-50.383c8.594-21.603,28.683-16.953,45.335-18.552c20.726-2.001,30.901,16.767,46.009,25.895
			c27.116,16.379,30.464,46.294,40.128,72.172c2.873,7.703-2.6,18.186-2.619,27.392c-0.022,13.175,0.99,26.427,2.672,39.51
			c0.382,2.889,5.349,7.374,8.221,7.39c18.69,0.132,37.547,0.671,55.963-1.853c12.474-1.705,26.026,2.096,37.774-8.065
			c7.914-6.855,13.749-13.434,15.045-23.688c2.771-21.64,4.402-43.492,8.527-64.876c3.212-16.653,8.171-33.275,14.773-48.89
			c8.902-21.104,20.019-41.277,30.443-61.716c1.853-3.641,4.604-8.938,7.687-9.5c23.899-4.489,32.648-30.941,55.208-37.258
			c7.491-2.097,14.35-6.416,21.507-9.71c1.891,0.069,3.778,0.139,5.661,0.208c13.679,2.377,27.495,7.303,40.985,6.497
			c17.351-1.021,32.275,5.047,42.875,15.373c14.271,13.91,24.469,32.054,35.805,48.802c1.108,1.649-2.555,6.142-3.157,9.471
			c-0.574,3.108-1.185,7.103,0.254,9.501c2.946,4.913,9.646,8.576,10.546,13.522c3.75,20.293,6.73,40.69-0.976,61.149
			c-11.857,31.507-22.287,63.583-47.239,88.102c-6.376,6.284-11.848,13.562-17.334,20.692c-9.26,12.032-16.479,26.315-27.681,36.058
			c-21.066,18.313-45.003,33.25-66.4,51.201c-10.781,9.04-20.38,19.166-33.618,24.78c-1.264,0.552-2.295,2.999-2.354,4.611
			c-0.52,14.156-1.734,28.384-0.865,42.459c0.873,14.513,3.82,28.87,5.938,43.286c0.332,2.225,1.057,4.39,1.716,6.579
			c4.408,14.757,9.975,29.299,12.943,44.352c3.05,15.416,5.459,30.01,15.018,43.731c21.409,30.757,59.333,34.793,87.785,10.427
			c29.965-25.675,55.641-56.685,91.234-75.612c1.169-0.628,2.204-1.856,2.824-3.051c6.512-12.444,11.277-26.199,19.645-37.193
			c27.208-35.767,35.264-79.043,48.984-120.022c7.341-21.901,9.031-45.94,18.153-66.875c7.46-17.068,6.099-33.29,6.722-50.28
			c0.623-17,2.033-34.005,3.872-50.928c2.66-24.909,6.128-49.75,9.019-74.64c1.814-15.506,2.644-31.133,4.956-46.547
			c1.886-12.442,21.025-22.85,33.657-19.532c14.726,3.878,29.791,6.744,44.209,11.575c6.664,2.226,12.445,7.688,17.932,12.478
			c2.611,2.271,2.773,7.356,5.385,9.556c15.918,13.442,25.334,30.519,29.774,50.605c4.17,18.708,8.459,37.384,12.49,56.122
			c6.687,31.045,26.978,53.977,48.284,74.946c18.309,18.005,40.779,31.757,61.189,47.663c9.264,7.223,18.859,9.118,29.955,4.873
			c22.316-8.551,44.684-17.064,67.186-25.066c14.207-5.053,28.728-9.229,43.16-13.646c1.676-0.515,3.684-0.107,5.523-0.032
			c21.784,1.018,43.556,2.359,65.357,2.94c9.18,0.246,18.955-3.333,27.537-1.314c20.859,4.92,43.07,4.901,62.458,15.49
			c8.706,4.761,16.976,10.357,25.317,15.786c7.08,4.625,13.352,11.84,21.061,13.897c22.404,6,33.824,23.565,45.285,40.628
			c10.415,15.506,18.484,32.563,27.695,48.872c0.323,0.564,1.684,0.523,2.553,0.741c-0.207,5.653-0.415,11.311-0.621,16.944
			c-2.621,12.333-5.734,24.581-7.713,37.028c-2.127,13.414-21.498,28.265-35.449,26.301c-1.854-0.253-3.979-0.721-5.585-0.091
			c-36.59,14.634-74.902,9.25-108.148-10.688c-27.568-16.548-57.013-30.309-86.562-43.155c-11.417-4.956-25.541-3.403-38.22-5.961
			c-7.342-1.465-14.22-5.191-25.39-9.496c1.868,11.19,2.558,18.717,4.413,25.945c5.969,23.125,12.907,45.982,18.365,69.205
			c2.408,10.26,2.169,21.14,3.185,31.745c0.188,1.849,1.312,3.709,1.092,5.446c-3.553,25.905-5.366,52.244-11.473,77.546
			c-5.348,22.11-14.311,43.652-24,64.338c-8.691,18.532-20.086,34.205-41.982,42.59c-10.791,4.135-26.468,10.491-31.428,25.823
			c-0.678,2.119-3.948,3.998-6.416,4.873c-10.144,3.542-20.6,6.241-30.613,10.045c-14.499,5.502-28.387,3.905-43.748,2.839
			c-31.207-2.182-51.987-21.729-75.545-36.588c-10.121-6.378-17.446-17.647-25.05-27.459c-7.102-9.147-13.063-19.191-19.123-29.083
			c-2.129-3.486-3.358-7.652-4.36-11.67c-3.389-13.657-7.355-27.269-9.381-41.158c-1.432-9.812-0.279-20.037,0.041-30.061
			c0.862-27.154,3.218-53.242,23.477-75.124c7.812-8.439,12.179-21.928,13.943-33.746c3.356-22.432,19.368-37.982,27.907-57.467
			c3.568-8.11,11.37-14.317,17.138-21.471c7.257-9.078,5.809-17.881-5.253-20.657c-15.509-3.882-24.577-13.974-32.435-26.438
			c-1.496-2.359-3.801-4.191-5.565-6.399c-7.681-9.606-13.692-8.813-17.378,3.067c-7.572,24.54-14.51,49.286-22.587,73.64
			c-3.621,10.92-8.594,21.578-14.324,31.588c-15.315,26.65-29.587,54.165-47.688,78.864c-15.457,21.117-35.451,38.987-53.828,57.926
			c-5.119,5.27-11.182,10.017-17.575,13.581c-26.061,14.559-52.534,28.368-78.638,42.831c-12.172,6.761-23.23,15.813-35.869,21.453
			c-46.245,20.68-91.876,21.586-135.755-7.166c-26.146-17.116-52.411-34.031-67.271-63.233
			c-7.885-15.459-19.032-29.774-23.979-46.046c-7.91-25.91-13.44-52.815-16.944-79.691c-2.32-17.742,0.75-36.162,1.254-54.304
			c0.319-11.799-8.004-13.323-17.01-13.72c-23.215-0.99-46.512-0.995-69.613-3.176c-20.652-1.909-29.013,4.049-36.885,22.151
			c-5.504,12.641-2.369,24.568-3.693,36.719c-2.584,24.05-5.678,47.533-15.083,70.438c-5.659,13.741-3.352,30.539-7.163,45.271
			c-7.262,28.025-26.543,49.116-45.039,70.146c-12.083,13.737-24.802,27.285-39.075,38.597
			c-21.974,17.331-45.398,32.864-68.453,48.821c-30.399,21.007-64.895,31.48-100.692,38.505
			c-15.287,3.005-30.586,9.166-45.739,8.795c-29.28-0.7-59.877,1.927-86.62-13.875c-34.385-20.3-74.793-33.25-97.93-68.257
			c-20.482-30.976-36.599-64.78-55.495-96.848c-6.697-11.392-15.886-21.301-23.873-31.952c-3.05-4.097-6.66-8.074-8.655-12.68
			c-10.891-25.006-34.336-22.185-55.068-25.454c-15.13-2.373-30.347-4.312-45.336-7.298c-13.3-2.655-27.096,5.103-33.348,18.065
			c-16.912,34.897-39.051,64.861-74.51,83.96c-17.871,9.609-33.238,23.778-50.335,34.962c-3.705,2.415-12.664-1.25-14.693,1.394
			c-10.194,13.137-24.951-3.815-35.056,6.265c-0.672,0.668-3.104,0.51-4.069-0.197c-17.519-12.448-40.237-9.343-58.298-19.122
			c-10.404-5.656-19.165-14.631-28.052-22.785c-11.936-10.979-25.723-21.036-34.259-34.356
			c-11.104-17.327-19.55-36.902-26.127-56.504c-11.854-35.195-5.451-69.788,10.609-102.231
			c12.231-24.709,28.655-45.816,56.92-55.113c11.44-3.77,21.156-12.553,32.357-17.418c10.834-4.687,22.439-7.993,34.001-10.606
			c13.391-3.007,27.151-6.578,40.698-6.333c22.266,0.45,44.475,3.772,69.225,6.128c-0.696-6.101-0.402-12.907-2.34-19.03
			c-6.398-20.218-13.372-40.268-20.605-60.217c-3.746-10.262-8.115-20.367-12.841-30.241c-5.519-11.495-13.087-19.117-27.275-21.985
			c-24.682-4.989-48.558-9.825-73.351-0.975c-23.699,8.456-47.674,18.189-64.034,36.796c-23.783,27.12-45.214,56.672-64.475,87.184
			c-8.99,14.262-10.903,33.114-15.299,50.057c-3.942,15.208-10.995,31.159-9.327,45.949c3.094,27.395-8.743,52.024-9.271,78.296
			c-0.502,26.244-0.359,52.494-0.493,78.73c-0.171,32.293-1.445,64.587-0.144,96.792c1.08,25.912,6.581,51.618,7.773,77.511
			c1.345,29.217-0.237,58.579-0.069,87.866c0.223,35.322,1.047,70.64,1.409,105.984c0.222,22.202,1.062,44.469-0.233,66.608
			l5.385,58.539c-2.312,5.233-1.363,12.079-1.312,18.183c0.202,38.519,2.511,77.16,0.161,115.542
			c-1.242,20.12-8.49,40.729-17.111,59.196c-4.347,9.329-18.969,13.259-26.917,21.571c-11.775,12.322-24.532,11.719-38.678,7.059
			c-0.887-0.31-1.875-0.327-2.74-0.677c-8.528-3.421-37.569-48.868-38.002-58.366c-0.87-19.645-2.684-39.258-3.181-58.89
			c-0.17-6.745,3.487-13.543,3.551-20.331 M8249.297,844.341c6.165-1.179,12.15-0.521,15.286-3.214
			c14.954-12.919,29.513-26.381,43.446-40.375c7.124-7.175,12.845-15.781,18.812-24.031c6.885-9.463,17.296-18.474,19.273-28.998
			c7.039-37.586,11.34-75.689,15.839-113.688c0.257-2.076-7.21-7.457-10.717-7.162c-13.05,1.144-21.899,10.26-32.45,17.341
			c-17.631,11.851-28.342,28.343-37.807,44.895c-9.791,17.113-15.301,37.48-18.946,57.107c-3.986,21.446-12.91,42.594-6.731,65.608
			c1.637,6.092-3.181,13.859-4.773,20.914C8249.842,835.773,8249.84,838.925,8249.297,844.341z M9476.15,948.756
			c-19.966,4.035-31.79,15.688-40.74,30.688c-5.615,9.372-10.281,19.307-15.407,28.992c-8.135,15.401-18.25,30.131-23.964,46.407
			c-6.166,17.636-6.816,37.134-12.532,54.97c-4.284,13.33,3.16,18.69,11.853,20.78c15.471,3.724,32.059,4.585,46.23-4.588
			c17.685-11.458,24.475-28.978,28.733-49.702C9478.923,1034.537,9479.846,992.974,9476.15,948.756z M7820.74,956.892
			c-13.838-0.489-47.896,19.237-57.25,30.725c-16.052,19.715-11.835,40.243,10.742,53.039c19.957,11.3,41.121,13.617,63.832,11.961
			c29.817-2.173,43.032-11.608,49.785-40.091c1.715-7.21,3.27-14.452,5.325-21.583c2.64-9.158-2.66-12.779-9.985-15.119
			c-8.307-2.632-16.686-5.099-25.046-7.616C7844.463,964.047,7830.781,959.908,7820.74,956.892z M8944.206,674.111
			c1.718,1.59,3.426,3.195,5.14,4.8c10.146-6.569,19.87-13.876,30.505-19.542c19.586-10.458,30.831-28.369,41.001-46.49
			c2.613-4.636-3.065-14.36-5.892-21.348c-0.805-1.952-5.97-4.26-7.542-3.418c-9.818,5.314-21.459,9.581-28.16,17.762
			c-10.868,13.263-18.922,28.977-27.08,44.24C8948.25,657.431,8946.781,666.064,8944.206,674.111z"/>
	</g>
</g>
</svg>
